<svg id="Capa_1" enable-background="new 0 0 512 512" height="512" viewBox="0 0 512 512" width="512" xmlns="http://www.w3.org/2000/svg"><path d="m441.996 481.272h-371.992c-4.188 0-7.583-3.395-7.583-7.583v-30.17c0-4.188 3.395-7.583 7.583-7.583h371.992c4.188 0 7.583 3.395 7.583 7.583v30.17c.001 4.188-3.395 7.583-7.583 7.583z" fill="#595959"/><path d="m417.754 435.936v45.337h24.242c4.188 0 7.583-3.395 7.583-7.583v-30.17c0-4.188-3.395-7.583-7.583-7.583h-24.242z" fill="#454545"/><path d="m409.584 389.383h-307.168c-4.188 0-7.583 3.395-7.583 7.583v38.969h322.336v-38.969c-.001-4.188-3.396-7.583-7.585-7.583z" fill="#bebebe"/><path d="m385.343 389.383v46.553h31.825v-38.969c0-4.188-3.395-7.583-7.583-7.583h-24.242z" fill="#aaa"/><path d="m392.856 389.383h-273.712v-195.438c0-75.583 61.272-136.855 136.855-136.855 75.583 0 136.855 61.272 136.855 136.855v195.438z" fill="#d82e3d"/><path d="m256 57.09c-5.384 0-10.691.321-15.913.926 68.085 7.885 120.943 65.73 120.943 135.929v195.438h31.825v-195.438c.001-75.583-61.272-136.855-136.855-136.855z" fill="#c32430"/><path d="m256 270.347c-8.92 0-16.41-6.717-17.376-15.585l-14.395-132.032c-.585-5.368 3.619-10.056 9.02-10.056h45.502c5.4 0 9.605 4.688 9.02 10.056l-14.394 132.033c-.967 8.867-8.457 15.584-17.377 15.584z" fill="#f6f6f6"/><circle cx="256" cy="315.897" fill="#f6f6f6" r="17.902"/><g fill="#d82e3d"><path d="m87.324 230.736h-79.824c-4.142 0-7.5-3.358-7.5-7.5s3.358-7.5 7.5-7.5h79.824c4.142 0 7.5 3.358 7.5 7.5s-3.358 7.5-7.5 7.5z"/><path d="m114.294 102.172c-1.919 0-3.839-.732-5.303-2.197l-56.444-56.444c-2.929-2.929-2.929-7.678 0-10.606 2.929-2.929 7.678-2.929 10.606 0l56.444 56.444c2.929 2.929 2.929 7.678 0 10.606-1.464 1.465-3.384 2.197-5.303 2.197z"/><path d="m504.5 230.736h-79.824c-4.143 0-7.5-3.358-7.5-7.5s3.357-7.5 7.5-7.5h79.824c4.143 0 7.5 3.358 7.5 7.5s-3.357 7.5-7.5 7.5z"/><path d="m397.705 102.172c-1.919 0-3.839-.732-5.304-2.197-2.929-2.929-2.929-7.678 0-10.606l56.444-56.444c2.93-2.929 7.678-2.929 10.607 0s2.929 7.678 0 10.606l-56.444 56.444c-1.464 1.465-3.384 2.197-5.303 2.197z"/></g></svg>