<svg id="Capa_1" enable-background="new 0 0 510.67 510.67" height="512" viewBox="0 0 510.67 510.67" width="512" xmlns="http://www.w3.org/2000/svg"><g><g><path d="m502.36 157.257v263.11c0 9.94-8.06 18-18 18h-458.05c-9.94 0-18-8.06-18-18v-263.13l.01.02 227.632-8.32z" fill="#eaf6ff"/><path d="m502.36 81.807v75.45h-494.04l-.01-.02v-75.43c0-9.94 8.06-18 18-18h458.05c9.94 0 18 8.06 18 18z" fill="#b3e59f"/><path d="m139.867 114.714h-38.553c-9.941 0-18-8.059-18-18v-70.213c0-9.941 8.059-18 18-18h38.553c9.941 0 18 8.059 18 18v70.213c0 9.941-8.059 18-18 18z" fill="#ffe07d"/><path d="m409.356 114.714h-38.553c-9.941 0-18-8.059-18-18v-70.213c0-9.941 8.059-18 18-18h38.553c9.941 0 18 8.059 18 18v70.213c0 9.941-8.059 18-18 18z" fill="#ffe07d"/><path d="m51.31 438.367h-25c-9.94 0-18-8.06-18-18v-263.13l.01.02 12.994-4.065 11.997 4.065v263.11c-.001 9.94 8.059 18 17.999 18z" fill="#c4e2ff"/><path d="m33.31 81.807v75.43l.01.02h-25l-.01-.02v-75.43c0-9.94 8.06-18 18-18h25c-9.94 0-18 8.06-18 18z" fill="#95d6a4"/><path d="m126.31 114.717h-25c-9.94 0-18-8.06-18-18v-70.22c0-9.94 8.06-18 18-18h25c-9.94 0-18 8.06-18 18v70.22c0 9.94 8.06 18 18 18z" fill="#ffc250"/><path d="m395.8 114.717h-25c-9.94 0-18-8.06-18-18v-70.22c0-9.94 8.06-18 18-18h25c-9.94 0-18 8.06-18 18v70.22c0 9.94 8.06 18 18 18z" fill="#ffc250"/><path d="m430.865 503.171h-351.064c-9.941 0-18-8.059-18-18v-231c0-9.941 8.059-18 18-18h351.064c9.941 0 18 8.059 18 18v231c0 9.941-8.059 18-18 18z" fill="#f9f7f8"/><path d="m104.806 503.169h-25c-9.95 0-18-8.06-18-18v-231c0-9.94 8.05-18 18-18h25c-9.95 0-18 8.06-18 18v231c0 9.94 8.05 18 18 18z" fill="#e5e1e5"/><path d="m219.8 314.004-23.681 27.096c-1.992 2.28-5.537 2.28-7.53 0l-23.681-27.095c-.796-.911-1.235-2.08-1.235-3.29v-27.673c0-2.761 2.239-5 5-5h47.362c2.761 0 5 2.239 5 5v27.673c0 1.209-.439 2.378-1.235 3.289z" fill="#b3e59f"/><path d="m290.866 424.898 23.681 27.095c1.992 2.28 5.537 2.28 7.53 0l23.681-27.095c.796-.911 1.235-2.08 1.235-3.29v-27.673c0-2.761-2.239-5-5-5h-47.362c-2.761 0-5 2.239-5 5v27.673c0 1.21.439 2.379 1.235 3.29z" fill="#8ac9fe"/></g><g><path d="m502.355 220.795c-4.143 0-7.5 3.358-7.5 7.5v191.07c0 5.79-4.71 10.5-10.5 10.5h-27.988v-175.695c0-14.061-11.439-25.5-25.5-25.5h-351.065c-14.061 0-25.5 11.439-25.5 25.5v175.695h-27.987c-5.79 0-10.5-4.71-10.5-10.5v-8.26c0-4.142-3.357-7.5-7.5-7.5s-7.5 3.358-7.5 7.5v8.26c0 14.061 11.439 25.5 25.5 25.5h27.987v40.305c0 14.061 11.439 25.5 25.5 25.5h351.064c14.061 0 25.5-11.439 25.5-25.5v-40.305h27.988c14.061 0 25.5-11.439 25.5-25.5v-191.07c.001-4.142-3.356-7.5-7.499-7.5zm-60.988 264.375c0 5.79-4.71 10.5-10.5 10.5h-351.065c-5.79 0-10.5-4.71-10.5-10.5v-231c0-5.79 4.71-10.5 10.5-10.5h351.064c5.79 0 10.5 4.71 10.5 10.5v231z"/><path d="m484.355 55.305h-49.499v-29.805c0-14.061-11.439-25.5-25.5-25.5h-38.554c-14.061 0-25.5 11.439-25.5 25.5v29.805h-179.935v-29.805c0-14.061-11.439-25.5-25.5-25.5h-38.554c-14.061 0-25.5 11.439-25.5 25.5v29.805h-49.498c-14.061 0-25.5 11.439-25.5 25.5v295.3c0 4.142 3.357 7.5 7.5 7.5s7.5-3.358 7.5-7.5v-212.347h479.04v29.537c0 4.142 3.357 7.5 7.5 7.5s7.5-3.358 7.5-7.5v-112.49c0-14.06-11.439-25.5-25.5-25.5zm-124.053-29.805c0-5.79 4.71-10.5 10.5-10.5h38.554c5.79 0 10.5 4.71 10.5 10.5v37.286c0 .007-.001.013-.001.019s.001.013.001.019v32.888c0 5.79-4.71 10.5-10.5 10.5h-38.554c-5.79 0-10.5-4.71-10.5-10.5zm-269.489 0c0-5.79 4.71-10.5 10.5-10.5h38.554c5.79 0 10.5 4.71 10.5 10.5v70.212c0 5.79-4.71 10.5-10.5 10.5h-38.554c-5.79 0-10.5-4.71-10.5-10.5zm-74.998 123.258v-67.953c0-5.79 4.71-10.5 10.5-10.5h49.498v25.407c0 14.061 11.439 25.5 25.5 25.5h38.554c14.061 0 25.5-11.439 25.5-25.5v-25.407h179.936v25.407c0 14.061 11.439 25.5 25.5 25.5h38.554c14.061 0 25.5-11.439 25.5-25.5v-25.407h49.499c5.79 0 10.5 4.71 10.5 10.5v67.953z"/><path d="m389.377 342.906h-184.875l20.947-23.967c1.991-2.278 3.088-5.199 3.088-8.226v-27.673c0-6.893-5.607-12.5-12.5-12.5h-47.361c-6.893 0-12.5 5.607-12.5 12.5v27.673c0 3.025 1.096 5.946 3.087 8.226l20.948 23.967h-58.919c-4.143 0-7.5 3.358-7.5 7.5s3.357 7.5 7.5 7.5h268.086c4.143 0 7.5-3.358 7.5-7.5s-3.358-7.5-7.501-7.5zm-218.202-57.366h42.361v24.234l-21.181 24.235-21.181-24.234v-24.235z"/><path d="m389.377 453.8h-58.918l20.949-23.969c1.99-2.278 3.086-5.199 3.086-8.225v-27.673c0-6.893-5.607-12.5-12.5-12.5h-47.361c-6.893 0-12.5 5.607-12.5 12.5v27.673c0 3.027 1.097 5.948 3.088 8.226l20.947 23.967h-184.876c-4.143 0-7.5 3.358-7.5 7.5s3.357 7.5 7.5 7.5h268.086c4.143 0 7.5-3.358 7.5-7.5s-3.358-7.499-7.501-7.499zm-92.245-57.366h42.361v24.235l-21.181 24.234-21.181-24.235v-24.234z"/></g></g></svg>