<?xml version="1.0" encoding="iso-8859-1"?>
<!-- Generator: Adobe Illustrator 19.0.0, SVG Export Plug-In . SVG Version: 6.00 Build 0)  -->
<svg version="1.1" id="Capa_1" xmlns="http://www.w3.org/2000/svg" xmlns:xlink="http://www.w3.org/1999/xlink" x="0px" y="0px"
	 viewBox="0 0 511.997 511.997" style="enable-background:new 0 0 511.997 511.997;" xml:space="preserve">
<path style="fill:#FED9A8;" d="M160.174,180.797h7.241v5.029c0,27.299,20.215,58.32,45.235,73.561l-0.002,25.228
	c0,2.369-1.544,4.461-3.808,5.159l-31.827,16.961l4.159,4.165c41.162,41.224,108.517,41.223,149.678-0.002l4.153-4.16l-31.85-16.964
	c-2.263-0.699-3.807-2.791-3.807-5.159l-0.002-25.432c25.033-15.248,45.238-46.239,45.238-73.551v-4.835h7.241
	c6.857,0,12.415-5.558,12.415-12.415v-24.316l0,0c-0.011-3.703-3.016-6.699-6.719-6.699h-203.04c-3.703,0-6.708,2.996-6.719,6.699
	l0,0v24.317C147.759,175.239,153.318,180.797,160.174,180.797z"/>
<path style="fill:#10C4C4;" d="M254.702,489.293c0.236,0.438,0.639,0.678,1.067,0.741c0.076,0.012,0.153,0.006,0.23,0.006
	s0.154,0.006,0.23-0.006c0.427-0.063,0.83-0.304,1.067-0.741l83.152-196.509l-19.443-6.87c-3.078-1.088-6.49-0.639-9.183,1.206
	L256,325.383l-55.822-38.263c-2.693-1.846-6.105-2.294-9.183-1.206l-19.443,6.87L254.702,489.293z"/>
<polygon style="fill:#FF9A1F;" points="266.711,367.044 245.285,367.044 225.533,496.044 286.464,496.044 "/>
<path style="fill:#FFBF14;" d="M255.998,325.383l-28.602,22.81c-0.731,0.61-0.917,1.658-0.44,2.482l14.597,25.234
	c0.35,0.605,0.995,0.977,1.694,0.977h25.504c0.698,0,1.344-0.372,1.694-0.977l14.597-25.234c0.477-0.824,0.291-1.872-0.44-2.482
	L255.998,325.383z"/>
<g>
	<path style="fill:#0FB0C0;" d="M201.823,368.607l25.808-20.602l28.367-22.622l-55.822-38.263c-2.693-1.846-6.105-2.294-9.183-1.206
		l-28.417,10.041L201.823,368.607z"/>
	<path style="fill:#0FB0C0;" d="M310.173,368.607l-25.808-20.602l-28.367-22.622l55.822-38.263c2.693-1.846,6.105-2.294,9.183-1.206
		l28.417,10.041L310.173,368.607z"/>
</g>
<path style="fill:#E1EFFB;" d="M504.267,479.065l-4.507-82.804c-1.861-29.269-20.99-54.598-48.604-64.357l-119.158-42.105
	l-75.002,177.249c-0.182,0.337-0.492,0.522-0.82,0.57c-0.059,0.009-0.118,0.005-0.177,0.005c-0.059,0-0.118,0.004-0.177-0.005
	c-0.329-0.049-0.639-0.234-0.82-0.57L180,289.799L60.841,331.904c-27.614,9.759-46.743,35.088-48.604,64.357L7.73,479.065
	c-0.585,9.198,6.706,16.98,15.908,16.98H255.8h0.396h232.163C497.561,496.044,504.852,488.263,504.267,479.065z"/>
<path style="fill:#CCDFED;" d="M504.267,479.065l-4.507-82.804c-1.861-29.269-20.99-54.598-48.604-64.357l-119.158-42.105
	l-6.722,15.885l74.203,26.22c27.614,9.759,46.743,35.088,48.604,64.357l4.329,79.539H23.638c-7.103,0-13.05-4.644-15.132-10.989
	L7.73,479.065c-0.585,9.198,6.706,16.98,15.908,16.98h464.721C497.561,496.044,504.852,488.263,504.267,479.065z"/>
<g>
	<path style="fill:#FED9A8;" d="M167.421,185.83c0,33.766,30.924,73.236,63.617,81.479c21.242,5.356,27.458,5.392,48.718,0.106
		l0.971-0.241c32.807-8.158,63.85-47.683,63.85-81.537V91.062H167.421V185.83z"/>
	<path style="fill:#FED9A8;" d="M189.113,238.79c8.644,10.358,19.204,18.991,30.411,24.314h72.511
		c11.302-5.278,21.963-13.916,30.687-24.314H189.113z"/>
</g>
<circle style="fill:#7A88E8;" cx="368.67" cy="412.027" r="31.27"/>
<circle style="fill:#61AFF6;" cx="368.67" cy="412.027" r="14.418"/>
<path style="fill:#F4C892;" d="M293.766,91.062v94.574c0,24.871-16.754,63.65-38.653,85.713c6.96,0.054,13.87-1.255,24.643-3.934
	l0.971-0.241c32.807-8.158,63.85-47.683,63.85-81.537V91.062H293.766z"/>
<path style="fill:#FFB125;" d="M255.823,15.949h-30.69c-41.985,0-76.021,34.036-76.021,76.021l2.843,45.376
	c0.368,5.877,7.228,9.11,11.827,5.433c4.107-3.283,6.738-8.336,6.738-14.005V98.721c94.037,43.301,136.462,35.752,155.463,22.14
	c6.327-4.533,15.141,0.15,15.141,7.933l0,0c0,5.671,2.635,10.725,6.746,14.008c4.601,3.675,11.459,0.442,11.826-5.435l2.837-45.396
	c0-41.985-34.036-76.021-76.021-76.021L255.823,15.949L255.823,15.949z"/>
<path style="fill:#FF901D;" d="M286.513,15.949h-30.69h-20.12c41.985,0,76.021,34.036,76.021,76.021l-2.287,36.6
	c6.891-1.936,12.305-4.671,16.548-7.71c6.328-4.533,15.141,0.15,15.141,7.933l0,0c0,5.671,2.635,10.725,6.746,14.008
	c4.601,3.675,11.459,0.442,11.826-5.435l2.837-45.396C362.534,49.985,328.499,15.949,286.513,15.949z"/>
<path d="M255.906,475.322c-0.438,0-0.86-0.033-1.289-0.101c-2.73-0.405-5.059-2.051-6.39-4.516
	c-0.115-0.214-0.221-0.433-0.315-0.657l-72.179-170.577l-23.7,8.374v22.316c14.798,3.013,25.934,15.568,27.106,30.589l5.957,76.438
	c0.277,3.547-0.95,7.078-3.367,9.691c-2.416,2.612-5.842,4.11-9.4,4.11h-10.194c-4.245,0-7.698-3.454-7.698-7.698
	s3.453-7.698,7.698-7.698h7.395l-5.74-73.646c-0.746-9.569-8.848-17.064-18.446-17.064s-17.701,7.496-18.447,17.065l-5.739,73.646
	h7.394c4.245,0,7.698,3.454,7.698,7.698s-3.453,7.698-7.698,7.698h-10.194c-3.558,0-6.984-1.498-9.399-4.11
	c-2.416-2.613-3.645-6.145-3.367-9.691l5.956-76.437c1.114-14.287,11.189-26.367,25.09-30.106v-17.359l-73.231,25.876
	c-21.933,7.751-38.218,26.784-42.499,49.673c-0.68,3.642-3.858,6.285-7.557,6.285l0,0c-0.475,0-0.955-0.045-1.425-0.134
	c-2.021-0.378-3.773-1.52-4.935-3.216s-1.594-3.744-1.216-5.765c5.287-28.27,25.405-51.782,52.503-61.359l78.478-27.731
	c1.605-26.353,20.791-47.972,46.752-52.717c-14.322-16.98-22.952-37.259-23.709-55.715c-10.9-0.204-19.736-9.181-19.736-20.102
	v-24.316c0.012-3.691,1.425-7.201,3.982-9.893l-2.614-41.721c-0.011-0.16-0.016-0.321-0.016-0.481
	c0-46.163,37.556-83.719,83.72-83.719h61.38c46.164,0,83.72,37.556,83.72,83.719c0,0.161-0.005,0.32-0.016,0.48l-2.586,41.383
	c2.765,2.726,4.293,6.348,4.305,10.209v24.339c0,10.924-8.839,19.902-19.742,20.102c-0.809,18.484-9.487,38.751-23.838,55.69
	c25.625,4.63,45.299,26.743,46.887,52.741l29.506,10.426c4.002,1.414,6.107,5.821,4.693,9.823c-1.086,3.072-4.001,5.136-7.256,5.136
	c-0.873,0-1.736-0.149-2.567-0.442l-24.26-8.572v60.364c18.711,3.25,32.272,19.363,32.272,38.377
	c0,21.484-17.479,38.964-38.963,38.964s-38.963-17.479-38.963-38.964c0-18.007,12.715-33.95,30.257-37.971v-66.21l-23.7-8.374
	l-72.177,170.577c-0.098,0.229-0.206,0.453-0.324,0.673c-0.147,0.273-0.312,0.531-0.485,0.784l-0.055,0.087
	c-0.131,0.188-0.277,0.363-0.422,0.537c0,0-0.176,0.225-0.214,0.268c-0.086,0.097-0.178,0.185-0.268,0.273l-0.23,0.229
	c-0.072,0.075-0.145,0.149-0.222,0.218c-0.061,0.054-0.124,0.102-0.187,0.15l-0.215,0.171c-0.127,0.105-0.255,0.21-0.391,0.305
	c-0.043,0.03-0.222,0.137-0.222,0.137c-0.234,0.153-0.431,0.281-0.638,0.392l-0.107,0.05c-0.312,0.156-0.556,0.276-0.811,0.377
	c-0.07,0.028-0.144,0.051-0.217,0.073l-0.225,0.076c-0.175,0.062-0.35,0.124-0.531,0.173c-0.333,0.089-0.672,0.16-1.018,0.211
	c-0.377,0.06-0.772,0.089-1.207,0.089h-0.096L255.906,475.322L255.906,475.322z M255.998,449.649l11.436-27.025l-5.826-38.041
	h-11.22l-5.826,38.041L255.998,449.649z M368.669,388.46c-12.995,0-23.567,10.572-23.567,23.567s10.572,23.567,23.567,23.567
	s23.566-10.572,23.566-23.567S381.664,388.46,368.669,388.46z M278.871,395.595l13.324-31.486l-4.126-3.292l-10.961,18.947
	c-0.163,0.282-0.347,0.547-0.537,0.807L278.871,395.595z M233.126,395.595l2.3-15.025c-0.19-0.26-0.374-0.525-0.537-0.807
	l-10.961-18.948l-4.126,3.292L233.126,395.595z M265.439,369.187l10.458-18.081l-19.899-15.876l-19.899,15.876l10.459,18.081
	H265.439z M213.57,349.38l8.872-7.078l0.155-0.129l20.468-16.322l-47.24-32.382c-0.421-0.288-0.915-0.441-1.428-0.441
	c-0.287,0-0.569,0.048-0.839,0.144l-3.281,1.159L213.57,349.38z M298.427,349.38l23.293-55.049l-3.282-1.16
	c-0.269-0.095-0.551-0.143-0.838-0.143c-0.514,0-1.007,0.152-1.426,0.44l-47.242,32.382L298.427,349.38z M255.998,316.051
	l37.093-25.426c-0.945-1.841-1.444-3.915-1.444-6.009l-0.002-12.94c-0.089,0.035-0.618,0.239-0.618,0.239
	c-0.827,0.324-1.654,0.637-2.485,0.928c-0.671,0.236-1.341,0.462-2.012,0.674c-0.324,0.103-0.647,0.204-0.972,0.301
	c-1.134,0.341-2.08,0.604-2.975,0.826l-0.97,0.242c-1.403,0.35-2.748,0.677-4.043,0.982l-2.169,0.501
	c-0.527,0.12-1.914,0.424-1.914,0.424c-0.474,0.103-1.847,0.389-1.847,0.389c-0.424,0.087-1.725,0.341-1.725,0.341
	c-0.443,0.085-1.629,0.301-1.629,0.301c-0.388,0.069-1.586,0.268-1.586,0.268c-0.377,0.062-0.756,0.123-1.128,0.178
	c0,0-1.209,0.172-1.513,0.211c0,0-1.189,0.146-1.483,0.18c0,0-1.162,0.12-1.461,0.146l-0.447,0.036
	c-0.363,0.03-0.676,0.057-0.983,0.078l-0.468,0.027c-0.317,0.02-0.637,0.039-0.953,0.054l-0.461,0.016
	c-0.321,0.013-0.634,0.025-0.945,0.031l-1.32,0.016c0,0-1.246-0.014-1.486-0.02l-1.416-0.052l-1.426-0.085
	c0,0-1.197-0.096-1.441-0.119c0,0-1.204-0.122-1.464-0.152l-1.495-0.186c0,0-1.22-0.172-1.522-0.218c0,0-1.237-0.197-1.564-0.252
	l-1.606-0.284l-1.662-0.319l-2.226-0.462c-0.452-0.097-1.731-0.38-1.731-0.38c-0.453-0.102-1.711-0.392-1.711-0.392
	c-0.517-0.12-2.5-0.596-2.5-0.596l-1.059-0.258c-0.677-0.167-1.369-0.34-2.075-0.518c-0.885-0.223-1.828-0.488-2.968-0.834
	c-0.302-0.092-0.604-0.186-0.906-0.283c-0.737-0.235-1.472-0.485-2.208-0.748c-0.601-0.214-1.202-0.443-1.802-0.674
	c0,0-0.746-0.287-0.923-0.357l-0.002,12.739c0,2.093-0.499,4.165-1.443,6.006L255.998,316.051z M193.819,258.646
	c-19.364,0-36.438,13.646-40.735,32.499l35.345-12.49c1.912-0.676,3.915-1.018,5.954-1.018c3.648,0,7.156,1.083,10.147,3.133
	l0.42,0.289l0.003-17.438c-2.269-1.53-4.53-3.203-6.725-4.975H193.819z M317.614,277.637c2.04,0,4.042,0.343,5.954,1.019
	l35.346,12.489c-4.298-18.853-21.372-32.499-40.736-32.499h-4.648c-2.122,1.7-4.304,3.307-6.488,4.778l0.003,17.637l0.424-0.291
	C310.458,278.72,313.967,277.637,317.614,277.637z M216.814,252.885c0.8,0.488,1.606,0.955,2.415,1.404l0.238,0.135
	c1.655,0.911,3.359,1.754,5.064,2.504l0.763,0.323c0.581,0.246,1.164,0.483,1.747,0.707c0.287,0.111,0.575,0.219,0.863,0.324
	c0.584,0.213,1.168,0.413,1.753,0.605c0,0,0.603,0.2,0.767,0.25c0.916,0.283,1.732,0.515,2.495,0.707
	c4.884,1.231,8.37,2.03,11.306,2.592c4.381,0.837,7.87,1.21,11.316,1.21c6.279,0,12.701-1.301,22.357-3.702l0.969-0.241
	c0.737-0.184,1.545-0.41,2.47-0.692c0.185-0.056,0.778-0.249,0.778-0.249c0.577-0.186,1.154-0.383,1.731-0.59
	c0.318-0.115,0.587-0.213,0.856-0.315c0.613-0.232,1.225-0.48,1.835-0.737l0.647-0.268c0.809-0.35,1.614-0.722,2.416-1.113
	l0.65-0.329c0.626-0.314,1.253-0.637,1.876-0.975l0.599-0.33c0.778-0.433,1.481-0.837,2.18-1.258l0.258-0.153
	c23.779-14.476,41.711-43.305,41.711-67.057v-43.998c-0.84-1.446-1.534-2.962-2.064-4.506l-0.064-0.203
	c-0.14-0.419-0.27-0.842-0.389-1.269l-0.133-0.515c-0.084-0.331-0.164-0.663-0.234-0.998c-0.043-0.202-0.083-0.404-0.121-0.606
	c-0.06-0.319-0.111-0.639-0.16-0.961c0,0-0.067-0.461-0.086-0.614c-0.043-0.348-0.074-0.697-0.103-1.047
	c0,0-0.038-0.416-0.045-0.533c-0.033-0.528-0.053-1.059-0.053-1.593c0-1.058-0.693-1.572-1.107-1.785
	c-0.292-0.15-0.584-0.226-0.868-0.226c-0.245,0-0.486,0.058-0.716,0.173c-0.088,0.044-0.178,0.098-0.268,0.163
	c-4.77,3.418-10.322,6.154-16.5,8.131l-0.522,0.177c-0.21,0.065-0.424,0.124-0.639,0.184l-0.81,0.233
	c-0.596,0.176-1.191,0.352-1.801,0.511l-0.478,0.114c-7.125,1.809-15.131,2.726-23.796,2.726c-3.246,0-6.643-0.129-10.095-0.383
	c-26.444-1.95-59.283-11.436-97.606-28.195v18.159c0,0.519-0.018,1.035-0.049,1.548l-0.035,0.422
	c-0.028,0.377-0.061,0.753-0.105,1.126l-0.062,0.442c-0.052,0.372-0.107,0.743-0.176,1.112l-0.074,0.38
	c-0.079,0.397-0.165,0.791-0.263,1.182l-0.072,0.278c-0.114,0.44-0.24,0.875-0.378,1.306l-0.04,0.129
	c-0.495,1.527-1.125,2.993-1.871,4.359l0.024,44.772c0,23.687,17.879,52.487,41.589,66.991l0.001,0.235L216.814,252.885z
	 M155.457,168.382c0,2.442,1.855,4.465,4.261,4.696l0.002-21.058c-0.123,0.003-0.247,0.004-0.371,0.004
	c-1.32,0-2.628-0.173-3.892-0.516V168.382z M352.278,173.077c2.406-0.23,4.261-2.253,4.261-4.695v-16.953
	c-1.391,0.413-2.819,0.623-4.247,0.623l-0.016-0.001L352.278,173.077z M331.46,111.394c0.349,0,0.697,0.012,1.046,0.033l0.344,0.031
	c0.249,0.02,0.498,0.042,0.747,0.074l0.433,0.064c0.22,0.034,0.436,0.068,0.653,0.11c0.154,0.03,0.306,0.062,0.456,0.096
	c0.211,0.046,0.423,0.097,0.633,0.151c0.149,0.04,0.3,0.08,0.449,0.123c0.214,0.062,0.428,0.13,0.64,0.201l0.424,0.144
	c0.23,0.083,0.459,0.174,0.687,0.268l0.359,0.146c0.345,0.149,0.686,0.309,1.024,0.482c5.839,3,9.467,8.931,9.467,15.479
	c0,0.335,0.021,0.667,0.054,0.997l0.025,0.218c0.039,0.31,0.079,0.561,0.129,0.81l0.049,0.246c0.071,0.316,0.156,0.628,0.257,0.933
	l0.036,0.098c0.117,0.327,0.209,0.559,0.31,0.787c0.051,0.117,0.105,0.232,0.16,0.347c0.084,0.174,0.175,0.344,0.268,0.513
	c0,0,0.152,0.276,0.203,0.36c0.483,0.793,1.065,1.51,1.733,2.138l2.79-44.513c-0.124-37.534-30.774-68.081-68.324-68.081h-61.38
	c-37.55,0-68.2,30.547-68.323,68.095l2.788,44.483c0.582-0.551,1.109-1.187,1.57-1.896c0.146-0.223,0.281-0.451,0.407-0.682
	c0.112-0.205,0.187-0.343,0.255-0.485c0.05-0.105,0.185-0.423,0.185-0.423c0.066-0.159,0.131-0.32,0.189-0.484
	c0.048-0.13,0.093-0.255,0.134-0.381c0.089-0.281,0.17-0.565,0.235-0.855l0.023-0.125c0.068-0.349,0.11-0.602,0.142-0.859
	l0.031-0.279c0.031-0.325,0.053-0.651,0.053-0.981V98.721c0-2.637,1.326-5.061,3.547-6.483c1.241-0.795,2.676-1.216,4.151-1.216
	c1.119,0,2.203,0.238,3.22,0.706c57.601,26.524,93.047,32.091,112.638,32.091c7.207,0,13.771-0.743,19.509-2.208
	c6.01-1.535,11.264-3.893,15.613-7.009c0.352-0.252,0.713-0.488,1.079-0.711l0.337-0.191c0.258-0.149,0.516-0.295,0.78-0.43
	c0.098-0.05,0.421-0.203,0.421-0.203c0.242-0.115,0.485-0.227,0.73-0.331c0.142-0.06,0.284-0.115,0.427-0.171
	c0.272-0.105,0.516-0.194,0.762-0.276c0.154-0.053,0.31-0.103,0.468-0.15c0.249-0.076,0.501-0.144,0.753-0.209
	c0.204-0.052,0.331-0.085,0.46-0.114c0.268-0.06,0.54-0.11,0.811-0.158l0.415-0.073c0.325-0.049,0.651-0.084,0.977-0.114l0.26-0.027
	c0.418-0.032,0.838-0.048,1.258-0.049L331.46,111.394z"/>
<path d="M23.638,503.743c-6.499,0-12.779-2.72-17.228-7.462c-4.457-4.748-6.776-11.202-6.363-17.705l1.848-33.951
	c0.223-4.083,3.587-7.281,7.659-7.281c0.147,0,0.297,0.004,0.447,0.013c4.237,0.231,7.497,3.867,7.267,8.105l-1.851,34.021
	c-0.149,2.355,0.639,4.578,2.218,6.263c1.574,1.677,3.705,2.6,6.002,2.6h53.737v-79.937c0-4.245,3.453-7.698,7.698-7.698
	s7.698,3.454,7.698,7.698v79.937h325.473v-79.937c0-4.245,3.453-7.698,7.698-7.698s7.698,3.454,7.698,7.698v79.937h54.717
	c2.297,0,4.429-0.924,6.002-2.6c1.58-1.684,2.37-3.883,2.224-6.192l-4.512-82.874c-1.49-23.437-15.532-44.381-36.647-54.657
	c-1.848-0.9-3.237-2.466-3.907-4.409c-0.672-1.944-0.546-4.033,0.354-5.881c1.3-2.671,3.955-4.331,6.927-4.331
	c1.172,0,2.303,0.262,3.364,0.778c26.084,12.695,43.435,38.595,45.278,67.593l4.511,82.874c0.411,6.458-1.91,12.886-6.367,17.635
	c-4.449,4.742-10.729,7.462-17.228,7.462H23.638V503.743z"/>
<g>
</g>
<g>
</g>
<g>
</g>
<g>
</g>
<g>
</g>
<g>
</g>
<g>
</g>
<g>
</g>
<g>
</g>
<g>
</g>
<g>
</g>
<g>
</g>
<g>
</g>
<g>
</g>
<g>
</g>
</svg>
