<svg id="Filloutline" enable-background="new 0 0 128 128" height="512" viewBox="0 0 128 128" width="512" xmlns="http://www.w3.org/2000/svg" xmlns:xlink="http://www.w3.org/1999/xlink"><defs><circle id="SVGID_18_" cx="93" cy="110" r="5"/><linearGradient id="lg1"><stop offset="0" stop-color="#f6cfbe"/><stop offset="1" stop-color="#edad99"/></linearGradient><linearGradient id="SVGID_1_" gradientUnits="userSpaceOnUse" x1="64" x2="64" xlink:href="#lg1" y1="93.833" y2="83.333"/><linearGradient id="lg2"><stop offset="0" stop-color="#ffcf97"/><stop offset="1" stop-color="#ffac6a"/></linearGradient><linearGradient id="SVGID_2_" gradientTransform="matrix(-1 0 0 1 895.999 0)" gradientUnits="userSpaceOnUse" x1="832.845" x2="833.106" xlink:href="#lg2" y1="75.278" y2="65.482"/><linearGradient id="SVGID_3_" gradientUnits="userSpaceOnUse" x1="66.124" x2="65.124" xlink:href="#lg2" y1="53.222" y2="70.055"/><linearGradient id="lg3"><stop offset="0" stop-color="#eff0f0"/><stop offset="1" stop-color="#e4e5e6"/></linearGradient><linearGradient id="SVGID_4_" gradientUnits="userSpaceOnUse" x1="15.741" x2="19.16" xlink:href="#lg3" y1="152.523" y2="119.665"/><linearGradient id="SVGID_5_" gradientUnits="userSpaceOnUse" x1="34.596" x2="31.453" xlink:href="#lg3" y1="145.075" y2="172.107"/><linearGradient id="SVGID_6_" gradientTransform="matrix(-1 0 0 1 1532.002 0)" gradientUnits="userSpaceOnUse" x1="1419.742" x2="1423.161" xlink:href="#lg3" y1="152.523" y2="119.665"/><linearGradient id="SVGID_7_" gradientTransform="matrix(-1 0 0 1 1598 0)" gradientUnits="userSpaceOnUse" x1="1504.596" x2="1501.453" xlink:href="#lg3" y1="145.075" y2="172.107"/><linearGradient id="SVGID_8_" gradientUnits="userSpaceOnUse" x1="93" x2="93" xlink:href="#lg1" y1="23.667" y2="72.341"/><linearGradient id="SVGID_9_" gradientUnits="userSpaceOnUse" x1="34" x2="34" xlink:href="#lg1" y1="23.667" y2="72.341"/><linearGradient id="SVGID_10_" gradientUnits="userSpaceOnUse" x1="68.857" x2="71.607" xlink:href="#lg1" y1="19.17" y2="4.92"/><linearGradient id="SVGID_11_" gradientUnits="userSpaceOnUse" x1="63" x2="63" y1="-17.25" y2="65.949"><stop offset="0" stop-color="#957e7f"/><stop offset="1" stop-color="#373638"/></linearGradient><linearGradient id="lg4"><stop offset="0" stop-color="#58595b"/><stop offset="1" stop-color="#414042"/></linearGradient><linearGradient id="SVGID_12_" gradientUnits="userSpaceOnUse" x1="50.756" x2="50.881" xlink:href="#lg4" y1="86.501" y2="69.877"/><linearGradient id="SVGID_13_" gradientUnits="userSpaceOnUse" x1="76.755" x2="76.88" xlink:href="#lg4" y1="86.648" y2="70.023"/><linearGradient id="SVGID_14_" gradientUnits="userSpaceOnUse" x1="59.893" x2="57.914" xlink:href="#lg3" y1="158.565" y2="149.549"/><linearGradient id="SVGID_15_" gradientTransform="matrix(-1 0 0 1 1532.002 0)" gradientUnits="userSpaceOnUse" x1="1463.894" x2="1461.915" xlink:href="#lg3" y1="158.565" y2="149.549"/><linearGradient id="SVGID_16_" gradientUnits="userSpaceOnUse" x1="36.63" x2="36.88" xlink:href="#lg4" y1="77.692" y2="79.692"/><linearGradient id="lg5"><stop offset="0" stop-color="#6c6f73"/><stop offset="1" stop-color="#56585b"/></linearGradient><linearGradient id="SVGID_17_" gradientUnits="userSpaceOnUse" x1="103.171" x2="105.593" xlink:href="#lg5" y1="113.609" y2="114.468"/><linearGradient id="SVGID_19_" gradientUnits="userSpaceOnUse" x1="73.449" x2="81.283" xlink:href="#lg4" y1="107.4" y2="108.442"/><clipPath id="SVGID_20_"><use xlink:href="#SVGID_18_"/></clipPath><linearGradient id="SVGID_21_" gradientUnits="userSpaceOnUse" x1="73.449" x2="81.283" xlink:href="#lg5" y1="107.4" y2="108.442"/></defs><g><g><g><g><g><path d="m52 76h24v21h-24z" fill="url(#SVGID_1_)"/><g><path d="m52 87.999c2.737 2.914 7.093 5 12 5 5.019 0 9.277-1.972 12-5v38.001h-12-12z" fill="url(#SVGID_2_)"/><path d="m52 87.999c2.737 2.914 7.093 5 12 5 5.019 0 9.277-1.972 12-5 1.108.245 2.479.576 4.025.975-2.326 4.671-8.613 8.025-16.025 8.025s-13.699-3.354-16.025-8.025c1.546-.399 2.917-.729 4.025-.975z" fill="url(#SVGID_3_)"/><g><path d="m35 98.999-18-1.999s-10 10-15 29h33z" fill="url(#SVGID_4_)"/><g><path d="m48 87c-7.129 1.579-25.089 5.665-31 10l10 29h33z" fill="url(#SVGID_5_)"/></g></g><g><path d="m93 98.999 18-1.999s10 10 15 29h-33z" fill="url(#SVGID_6_)"/><g><path d="m80 87c7.129 1.579 25.089 5.665 31 10l-10 29h-33z" fill="url(#SVGID_7_)"/></g></g></g><g><path d="m100 52.857c0 4.418-3.134 9.143-7 9.143s-7-4.725-7-9.143 3.134-6.857 7-6.857 7 2.439 7 6.857z" fill="url(#SVGID_8_)"/><path d="m41 52.857c0 4.418-3.134 9.143-7 9.143s-7-4.725-7-9.143 3.134-6.857 7-6.857 7 2.439 7 6.857z" fill="url(#SVGID_9_)"/></g><path d="m89 28h-50c-2.238.543-4 2.697-4 5v20.007c0 16.993 13 29.993 29 29.993s29-13 29-29.993v-20.007c0-2.31-1.753-4.463-4-5z" fill="url(#SVGID_10_)"/><path d="m64 2c15.685 0 33 12.188 33 31-.052 11.912-4 20-4 20 0-6-3-20-3-20-17 4-51-4-51-4s-4 6-4 24c0 0-6-7-6-19 0-14.964 7-18 7-18s2-14 28-14z" fill="url(#SVGID_11_)"/><g><g><circle cx="51" cy="54" fill="url(#SVGID_12_)" r="3"/><circle cx="77" cy="54" fill="url(#SVGID_13_)" r="3"/></g></g></g><g><path d="m52 84 8 42-16-15 2-8-7-1.001 8-15c.812-1.469 3.125-2.998 5-2.999z" fill="url(#SVGID_14_)"/><path d="m76 84-8 42 16-15-2-8 7-1.001-8-15c-.812-1.469-3.125-2.998-5-2.999z" fill="url(#SVGID_15_)"/></g></g></g><g><g><path d="m40 94c-6.065 0-11 4.935-11 11h2c0-4.963 4.038-9 9-9s9 4.037 9 9h2c0-6.065-4.935-11-11-11z" fill="url(#SVGID_16_)"/></g><g><circle cx="93" cy="110" fill="url(#SVGID_17_)" r="5"/><g><g><g><use fill="url(#SVGID_19_)" xlink:href="#SVGID_18_"/><path clip-path="url(#SVGID_20_)" d="m88 105h10v10h-10z" fill="url(#SVGID_21_)"/></g></g></g></g></g></g><g fill="#3a322b"><path d="m126.967 125.745c-5.011-19.042-14.844-29.036-15.26-29.452-.009-.009-.02-.017-.03-.026-.008-.007-.016-.013-.024-.02-.021-.018-.04-.037-.062-.054-2.969-2.177-9.126-4.525-18.329-7.007-1.695-5.422-6.184-9.585-11.834-10.808 5.129-3.727 9.024-9.089 11.038-15.416.179.019.358.038.534.038 4.579 0 8-5.354 8-10.143 0-3.369-1.679-5.971-4.521-7.161.808-3.368 1.499-7.684 1.521-12.696 0-19.142-17.58-32-34-32-24.051 0-28.244 11.685-28.886 14.344-1.693 1.023-7.114 5.341-7.114 18.656 0 4.789.921 8.781 2.053 11.901-2.552 1.279-4.053 3.804-4.053 6.956 0 4.789 3.421 10.143 8 10.143.496 0 .991-.073 1.48-.202 2.02 6.47 6.004 11.943 11.264 15.708-4.211 1.31-7.319 5.069-7.699 9.565-11.616 2.895-19.225 5.621-22.637 8.123-.022.016-.042.036-.062.054-.008.007-.016.013-.024.02-.01.009-.021.016-.03.026-.416.416-10.249 10.41-15.26 29.452-.079.3-.014.62.175.865.19.245.483.389.793.389h124c.31 0 .603-.144.792-.39.189-.245.254-.565.175-.865zm-17.161-28.35-9.519 27.605h-29.758l14.155-13.271c.265-.248.374-.62.286-.972l-1.731-6.925 5.902-.844c.323-.047.603-.247.75-.538.148-.291.144-.635-.009-.923l-6.835-12.816c3.2.736 6.046 1.438 8.579 2.107.236 1.025.374 2.086.374 3.182v10.09c-2.833.478-5 2.942-5 5.91 0 3.309 2.691 6 6 6s6-2.691 6-6c0-2.967-2.167-5.431-5-5.91v-10.09c0-.888-.088-1.753-.226-2.601 9.224 2.544 13.794 4.561 16.032 5.996zm-82.093 27.605-9.519-27.605c2.595-1.664 8.318-4.109 20.806-7.253v3.908c-5.598.508-10 5.222-10 10.95v10c0 2.206 1.794 4 4 4h4c.552 0 1-.447 1-1s-.448-1-1-1h-4c-1.103 0-2-.897-2-2v-10c0-4.963 4.038-9 9-9 .349 0 .693.025 1.032.064l-2.914 5.464c-.153.288-.157.632-.009.923.147.291.427.491.75.538l5.902.844-1.731 6.925c-.088.352.021.724.286.972l5.044 4.729c-.358.333-.834.541-1.36.541h-5c-.552 0-1 .447-1 1s.448 1 1 1h5c1.101 0 2.099-.447 2.823-1.17l7.648 7.17zm17.24-36.288-2.924 5.483c-.338-.063-.68-.113-1.029-.145v-4.403c1.255-.305 2.57-.617 3.953-.935zm19.047-4.712c3.904 0 7.608-.741 11-2.085v1.99l-.855 4.489c-2.655 2.321-6.239 3.605-10.145 3.605-3.741 0-7.417-1.335-10.155-3.656l-.845-4.438v-1.99c3.392 1.344 7.096 2.085 11 2.085zm23.446 17.211-5.588.799c-.28.04-.53.197-.688.433-.158.234-.208.525-.14.8l1.857 7.431-13.33 12.496 7.247-38.049c1.351.344 2.802 1.427 3.313 2.349zm-33.054-9.996c2.809 1.78 6.185 2.784 9.608 2.784 3.54 0 6.854-.954 9.592-2.702l-.521 2.734c-2.678 1.284-5.799 1.968-9.071 1.968s-6.394-.684-9.071-1.969zm-3.197-6.094 7.247 38.049-7.599-7.124c.092-.336.157-.682.157-1.046v-10c0-4.656-2.912-8.636-7.007-10.238l3.882-7.278c.517-.935 1.969-2.019 3.32-2.363zm-6.082 25.552 1.857-7.431c.068-.274.018-.565-.14-.8s-.408-.393-.688-.433l-5.588-.799 2.49-4.67c3.467 1.253 5.956 4.567 5.956 8.46v9.317zm15.715 14.327-5.446-28.593c2.63 1.039 5.568 1.592 8.619 1.592 3.05 0 5.988-.552 8.619-1.592l-5.448 28.593zm32.172-19c2.206 0 4 1.794 4 4s-1.794 4-4 4-4-1.794-4-4 1.794-4 4-4zm-2.089-17.433c-2.794-.72-5.832-1.451-9.129-2.192-.855-1.416-2.802-2.871-4.782-3.265v-2.068c.64-.311 1.264-.648 1.877-1.003 5.469.337 10.034 3.752 12.034 8.528zm8.089-35.71c0 3.755-2.607 8.116-5.972 8.14.615-2.472.948-5.072.967-7.764.282-.612 1.133-2.566 1.982-5.585 1.932.927 3.023 2.773 3.023 5.209zm-62.602-35.94c.319-.138.543-.432.592-.775.019-.132 2.165-13.142 27.01-13.142 15.454 0 32 12.055 32 29.996-.028 6.524-1.263 11.905-2.335 15.363-.766-6.557-2.59-15.114-2.687-15.569-.057-.263-.216-.491-.443-.635-.227-.145-.502-.189-.764-.129-16.575 3.903-50.205-3.921-50.542-4-.405-.093-.829.071-1.061.419-.16.239-3.686 5.713-4.124 21.328-1.698-2.966-4.044-8.391-4.044-15.773 0-14.003 6.342-17.057 6.398-17.083zm-2.398 44.083c-3.379 0-6-4.377-6-8.143 0-2.323 1.007-4.132 2.794-5.096 1.309 3.009 2.681 4.919 3.215 5.6.027 2.6.344 5.116.929 7.51-.313.081-.627.129-.938.129zm2-8c0-14.354 2.597-20.965 3.517-22.855 5.104 1.154 33.657 7.291 49.71 4.048.673 3.277 2.773 13.892 2.773 18.814 0 2.989-.419 5.858-1.195 8.551-.001.005-.006.009-.007.014s0 .01-.001.015c-2.036 7.04-6.537 12.869-12.511 16.471-.139.044-.265.116-.367.216-.721.42-1.464.807-2.225 1.161-.066.022-.125.051-.184.085-3.495 1.593-7.383 2.48-11.51 2.48s-8.015-.887-11.51-2.48c-.059-.034-.117-.063-.183-.084-9.703-4.508-16.307-14.521-16.307-26.436zm13.142 27.05c.607.351 1.224.685 1.858.992v2.068c-1.974.393-3.915 1.842-4.78 3.264-1.769.398-3.47.793-5.095 1.184.647-3.978 3.915-7.116 8.017-7.508zm-32.532 18.885 8.987 26.065h-22.289c3.959-14.096 10.684-22.984 13.302-26.065zm85.793 26.065 8.989-26.067c2.617 3.074 9.335 11.944 13.301 26.067z"/><path d="m55 54c0-2.206-1.794-4-4-4s-4 1.794-4 4 1.794 4 4 4 4-1.794 4-4zm-6 0c0-1.103.897-2 2-2s2 .897 2 2-.897 2-2 2-2-.897-2-2z"/><path d="m77 50c-2.206 0-4 1.794-4 4s1.794 4 4 4 4-1.794 4-4-1.794-4-4-4zm0 6c-1.103 0-2-.897-2-2s.897-2 2-2 2 .897 2 2-.897 2-2 2z"/><path d="m56.471 45.841c.165.103.347.151.528.151.334 0 .66-.167.85-.472.292-.469.148-1.085-.32-1.377-6.633-4.131-11.161-1.22-12.866-.123l-.198.127c-.467.295-.605.912-.311 1.379.295.466.912.607 1.38.311l.21-.134c1.548-.994 5.171-3.322 10.727.138z"/><path d="m71.001 45.992c.181 0 .363-.049.528-.151 5.559-3.461 9.181-1.132 10.727-.138l.209.134c.467.298 1.084.156 1.38-.31.295-.467.156-1.085-.311-1.38l-.197-.127c-1.705-1.096-6.232-4.007-12.866.123-.469.292-.612.908-.32 1.377.19.305.516.472.85.472z"/><path d="m57.185 72.421c-.32.45-.214 1.074.236 1.395 2.048 1.455 4.302 2.183 6.562 2.183 2.258 0 4.522-.727 6.592-2.18.452-.317.561-.94.244-1.393-.317-.452-.94-.562-1.393-.244-3.468 2.435-7.421 2.436-10.846.003-.451-.322-1.076-.214-1.395.236z"/><path d="m63.991 67h.005c.976 0 1.92-.454 2.731-1.313.379-.402.36-1.035-.042-1.414-.401-.378-1.034-.36-1.414.041-.294.313-.755.686-1.274.686-.001 0-.001 0-.002 0-.517-.001-.973-.372-1.265-.684-.378-.403-1.011-.423-1.414-.046s-.424 1.01-.046 1.413c.806.86 1.746 1.315 2.721 1.317z"/></g></g></svg>