<svg id="Layer_1" height="512" viewBox="0 0 512 512" width="512" xmlns="http://www.w3.org/2000/svg" data-name="Layer 1"><g fill-rule="evenodd"><path d="m413.02 415.115-12.41-29.79 33.171-33.17zm9.45-74.28-62.97 20.77 29.8 12.4 33.169-33.17zm20.921-23.74-106.891 35.24a12.353 12.353 0 0 0 -5.01 3.17 8 8 0 0 0 2.72 12.9l49.141 20.45a12.579 12.579 0 0 1 2.409 2.42l20.451 49.13a8.019 8.019 0 0 0 5.739 4.76 8.479 8.479 0 0 0 1.65.17 8.034 8.034 0 0 0 5.52-2.21 12.162 12.162 0 0 0 3.16-5.01l35.251-106.89a11.091 11.091 0 0 0 -14.139-14.13zm-43.081 152.01a95.7 95.7 0 1 0 -95.69-95.69 95.8 95.8 0 0 0 95.69 95.69zm-332.399-64.305h225.2a111.724 111.724 0 0 1 137.789-138.825v-171.17a51.671 51.671 0 0 0 -8.849-28.96l-193.431 164.1a8 8 0 0 1 -10.35 0l-193.42-164.1a51.594 51.594 0 0 0 -8.85 28.96v258.08a51.974 51.974 0 0 0 51.911 51.915zm311.069-361.9a51.629 51.629 0 0 1 32.17 11.21l-187.7 159.244-187.71-159.249a51.658 51.658 0 0 1 32.17-11.205zm67.92 229.015v-177.11a67.991 67.991 0 0 0 -67.92-67.905h-311.069a67.982 67.982 0 0 0 -67.911 67.905v258.08a67.988 67.988 0 0 0 67.91 67.915h230.69c.19 0 .38-.02.57-.03a111.682 111.682 0 1 0 147.73-148.855z" fill="#3d9ae2"/><g fill="#bddbff"><path d="m288.62 373.415a111.724 111.724 0 0 1 142.28-107.44v-171.17a51.671 51.671 0 0 0 -8.849-28.96l-193.431 164.1a8 8 0 0 1 -10.35 0l-193.42-164.1a51.594 51.594 0 0 0 -8.85 28.96v258.08a51.974 51.974 0 0 0 51.911 51.915h225.2a111.379 111.379 0 0 1 -4.491-31.385z"/><path d="m223.45 213.354 187.7-159.249a51.629 51.629 0 0 0 -32.17-11.205h-311.07a51.658 51.658 0 0 0 -32.17 11.21z"/></g></g></svg>