<svg id="icons" height="512" viewBox="0 0 60 60" width="512" xmlns="http://www.w3.org/2000/svg"><path d="m59 11v22a4 4 0 0 1 -4 4h-28a4 4 0 0 1 -4-4v-22l1-1h34z" fill="#d6e6e7"/><path d="m59 8v3h-36v-3a4 4 0 0 1 4-4h28a4 4 0 0 1 4 4z" fill="#e26767"/><g fill="#5b6a7c"><rect height="6" rx="2" width="4" x="28" y="1"/><rect height="6" rx="2" width="4" x="39" y="1"/><rect height="6" rx="2" width="4" x="50" y="1"/></g><path d="m58.7 43.737a30.993 30.993 0 1 1 -42.437-42.437 2.112 2.112 0 0 1 2.989 2.689 27.993 27.993 0 0 0 36.756 36.759 2.112 2.112 0 0 1 2.692 2.989z" fill="#f2c853"/><path d="m55 3a3 3 0 0 0 -6 0h-5a3 3 0 0 0 -6 0h-5a3 3 0 0 0 -6 0 5.006 5.006 0 0 0 -5 5v21.119a26.459 26.459 0 0 1 -3.812-10.839 27.187 27.187 0 0 1 1.983-13.893 3.1 3.1 0 0 0 -.808-3.611 3.039 3.039 0 0 0 -3.607-.335 32.125 32.125 0 0 0 -6.284 4.849 1 1 0 0 0 1.408 1.42 30.1 30.1 0 0 1 5.892-4.546 1.056 1.056 0 0 1 1.271.114 1.122 1.122 0 0 1 .29 1.32 29.212 29.212 0 0 0 -2.133 14.917 28.993 28.993 0 0 0 40.2 23.152 1.125 1.125 0 0 1 1.32.29 1.056 1.056 0 0 1 .114 1.272 29.993 29.993 0 0 1 -55.767-13.19 29.711 29.711 0 0 1 5.516-19.457 1 1 0 0 0 -1.627-1.164 31.7 31.7 0 0 0 -5.885 20.752 32.016 32.016 0 0 0 29.76 29.759q1.082.07 2.154.07a31.885 31.885 0 0 0 27.574-15.754 3.044 3.044 0 0 0 -.335-3.608 3.1 3.1 0 0 0 -3.611-.808 27.184 27.184 0 0 1 -13.893 1.984 26.5 26.5 0 0 1 -10.839-3.813h24.119a5.006 5.006 0 0 0 5-5v-25a5.006 5.006 0 0 0 -5-5zm-4 0a1 1 0 0 1 2 0v2a1 1 0 0 1 -2 0zm-11 0a1 1 0 0 1 2 0v2a1 1 0 0 1 -2 0zm-11 0a1 1 0 0 1 2 0v2a1 1 0 0 1 -2 0zm-2 2a3 3 0 0 0 6 0h5a3 3 0 0 0 6 0h5a3 3 0 0 0 6 0 3 3 0 0 1 3 3v2h-34v-2a3 3 0 0 1 3-3zm28 31h-26.922a27.528 27.528 0 0 1 -4.078-4.077v-19.923h34v21a3 3 0 0 1 -3 3z" fill="#373737"/></svg>