<svg height="512" viewBox="0 0 24 24" width="512" xmlns="http://www.w3.org/2000/svg"><g id="_14" data-name="14"><path d="m19.39355 5.08105-7-3a1.0015 1.0015 0 0 0 -.7871 0l-7 3a.99856.99856 0 0 0 -.60645.91895v8a8 8 0 0 0 16 0v-8a.99856.99856 0 0 0 -.60645-.91895z" fill="#00beea"/><path d="m11.60645 2.08105-7 3a.99856.99856 0 0 0 -.60645.91895v8a8.00577 8.00577 0 0 0 7.86615 7.99323l.26739-19.9654a.98277.98277 0 0 0 -.52709.05322z" fill="#00beea"/><path d="m19.39355 5.08105-7-3a.98336.98336 0 0 0 -.26-.05322l-.26739 19.9654c.04497.00077.08867.00677.13384.00677a8.00917 8.00917 0 0 0 8-8v-8a.99856.99856 0 0 0 -.60645-.91895z" fill="#00a6c1"/><path d="m12 20a6.00657 6.00657 0 0 1 -6-6v-7.33984l6-2.57227 6 2.57227v7.33984a6.00657 6.00657 0 0 1 -6 6z" fill="#006368"/><g fill="#fff"><path d="m12 14a.99943.99943 0 0 1 -1-1v-5a1 1 0 0 1 2 0v5a.99943.99943 0 0 1 -1 1z"/><path d="m12 17.00488a1.00488 1.00488 0 1 1 1.00488-1.00488 1.00777 1.00777 0 0 1 -1.00488 1.00488z"/></g></g></svg>