<svg id="Capa_1" enable-background="new 0 0 512 512" height="512" viewBox="0 0 512 512" width="512" xmlns="http://www.w3.org/2000/svg"><g><path d="m341.548 27.468c-8.923 0-180.097 0-188.987 0-12.269 0-22.214 10.053-22.214 22.453v12.545h.001v129.81h34.625v-116.418c0-7.396 5.932-13.392 13.25-13.392h155.554c7.318 0 13.25 5.996 13.25 13.392v116.418h11.961 5.867v-155.361z" fill="#5a5a5a"/><path d="m493.285 159.728-21.977-13.958v.576c-4.266-2.872-9.403-4.549-14.933-4.55h-429.59c-14.793.001-26.785 11.993-26.785 26.785v289.166c0 14.793 11.992 26.785 26.785 26.785h429.59c5.529-.001 10.666-1.679 14.933-4.55l21.977-12.795z" fill="#e5eef9"/><path d="m485.215 141.797h-28.845c14.793 0 26.785 11.992 26.785 26.785v289.166c0 14.793-11.992 26.785-26.785 26.785h28.845c14.793 0 26.785-11.992 26.785-26.785v-289.167c0-14.792-11.992-26.784-26.785-26.784z" fill="#d5e3f4"/><path d="m381.653 49.921c0-12.4-9.946-22.453-22.214-22.453h-22.664c12.269 0 22.214 10.053 22.214 22.453l.001 142.355h22.664z" fill="#444"/><path d="m101.473 141.797h309.054v342.735h-309.054z" fill="#ee6161"/><circle cx="256" cy="313.164" fill="#e5eef9" r="108.856"/><path d="m320.183 290.053h-41.071v-41.071c0-2.845-2.306-5.151-5.151-5.151h-35.921c-2.845 0-5.151 2.306-5.151 5.151v41.071h-41.072c-2.845 0-5.151 2.306-5.151 5.151v35.921c0 2.845 2.306 5.151 5.151 5.151h41.072v41.071c0 2.845 2.306 5.151 5.151 5.151h35.921c2.845 0 5.151-2.306 5.151-5.151v-41.071h41.071c2.845 0 5.151-2.306 5.151-5.151v-35.921c0-2.845-2.307-5.151-5.151-5.151z" fill="#f6ab31"/><path d="m113.191 122.978-9.133-4.515c-1.299-.878-2.864-1.39-4.549-1.391h-18.807c-4.495 0-8.139 3.644-8.139 8.14v58.924c0 4.495 3.644 8.139 8.139 8.139h18.805c1.499 0 2.898-.412 4.104-1.119l9.58-5.08z" fill="#fec165"/><path d="m122.171 117.072h-22.664c4.495 0 8.14 3.644 8.14 8.14v58.924c0 4.495-3.644 8.139-8.14 8.139h22.664c4.495 0 8.14-3.644 8.14-8.139v-58.924c-.001-4.495-3.645-8.14-8.14-8.14z" fill="#fdb441"/><path d="m422.282 122.978-9.133-4.515c-1.299-.878-2.864-1.39-4.549-1.391h-18.808c-4.495 0-8.139 3.644-8.139 8.14v58.924c0 4.495 3.644 8.139 8.139 8.139h18.805c1.499 0 2.898-.412 4.104-1.119l9.58-5.08v-63.098z" fill="#fec165"/><path d="m431.262 117.072h-22.664c4.495 0 8.14 3.644 8.14 8.14v58.924c0 4.495-3.644 8.139-8.14 8.139h22.664c4.495 0 8.14-3.644 8.14-8.139v-58.924c-.001-4.495-3.645-8.14-8.14-8.14z" fill="#fdb441"/></g></svg>