<svg id="Capa_1" enable-background="new 0 0 512 512" height="512" viewBox="0 0 512 512" width="512" xmlns="http://www.w3.org/2000/svg"><g><path d="m512 256c0 54-16.73 104.1-45.27 145.4-46.2 66.82-123.35 110.6-210.73 110.6s-164.53-43.78-210.73-110.6c0 0 0-.01-.01-.01-28.08-40.64-44.72-89.79-45.25-142.79-.01-1.73-.01-3.47 0-5.2.53-53 17.17-102.15 45.25-142.79.01 0 .01-.01.01-.01 46.2-66.82 123.35-110.6 210.73-110.6s164.53 43.78 210.73 110.6c28.09 40.65 44.74 89.82 45.26 142.84.01.85.01 1.71.01 2.56z" fill="#319df5"/><path d="m231.242 90.587h-157.425c-8.32 0-15.064 6.745-15.064 15.064v9.776c0 8.32 6.745 15.064 15.064 15.064h157.424c8.32 0 15.064-6.745 15.064-15.064v-9.776c.001-8.32-6.744-15.064-15.063-15.064z" fill="#665e66"/><g fill="#665e66"><path d="m127.314 426.786h-44.24c-5.139 0-9.305-4.166-9.305-9.305v-19.964c0-5.139 4.166-9.305 9.305-9.305h44.24c5.139 0 9.305 4.166 9.305 9.305v19.964c0 5.139-4.166 9.305-9.305 9.305z"/><path d="m428.928 426.786h-44.24c-5.139 0-9.305-4.166-9.305-9.305v-19.964c0-5.139 4.166-9.305 9.305-9.305h44.24c5.139 0 9.305 4.166 9.305 9.305v19.964c.001 5.139-4.165 9.305-9.305 9.305z"/></g><path d="m512 256c0 54-16.73 104.1-45.27 145.4-140.49 7.94-280.97 7.94-421.46 0-28.09-40.65-44.74-89.82-45.26-142.84-.01-.85-.01-1.71-.01-2.56s0-1.71.01-2.56c.12-38.19 3.08-76.37 8.89-114.57 2.33-15.39 15.15-27.05 30.68-27.95 1.9-.11 3.79-.22 5.69-.32 140.49-7.94 280.97-7.94 421.46 0 1.9.1 3.79.21 5.69.32 15.53.9 28.35 12.56 30.68 27.95 5.81 38.2 8.77 76.38 8.89 114.57.01.85.01 1.71.01 2.56z" fill="#eb5793"/><path d="m52.73 401.81c-2.49-.14-4.98-.28-7.47-.42-28.08-40.64-44.72-89.79-45.25-142.79-.01-1.73-.01-3.47 0-5.2.12-38.17 3.09-76.36 8.89-114.53 2.34-15.38 15.15-27.05 30.69-27.94 1.89-.11 3.78-.22 5.67-.32l7.47-.42c-9.8 4.76-17 14.1-18.71 25.39-12.2 80.28-12.2 160.56 0 240.84 1.71 11.28 8.91 20.62 18.71 25.39z" fill="#e7387e"/><path d="m256 381.435c-69.403 0-139.819-1.989-209.291-5.911l-11.398-.643-1.629-11.299c-10.293-71.386-10.293-143.777 0-215.163l1.629-11.299 11.398-.643c69.473-3.922 139.889-5.911 209.291-5.911 69.4 0 139.816 1.989 209.291 5.911l11.398.643 1.629 11.299c10.293 71.386 10.293 143.777 0 215.164l-1.629 11.299-11.398.643c-69.472 3.921-139.887 5.91-209.291 5.91z" fill="#e7387e"/><path d="m256 367.479c-69.166 0-139.286-1.981-208.504-5.889-10.107-70.097-10.107-141.083 0-211.18 69.217-3.908 139.338-5.889 208.504-5.889s139.286 1.981 208.504 5.889c10.107 70.097 10.107 141.083 0 211.181-69.217 3.907-139.338 5.888-208.504 5.888z" fill="#665e66"/><g><g><path d="m117.823 333.467c-1.205 0-2.429-.244-3.603-.76-4.531-1.992-6.59-7.28-4.598-11.812l48.116-109.458h-53.4c-4.95 0-8.963-4.013-8.963-8.963s4.013-8.963 8.963-8.963h67.13c3.028 0 5.85 1.528 7.506 4.064 1.655 2.535 1.918 5.734.699 8.506l-53.641 122.027c-1.476 3.359-4.763 5.359-8.209 5.359z" fill="#f9f6f6"/></g><g><path d="m272.239 333.465c-24.399 0-44.25-19.851-44.25-44.25v-56.433c0-24.4 19.85-44.25 44.25-44.25s44.25 19.85 44.25 44.25v56.433c0 24.399-19.85 44.25-44.25 44.25zm0-127.008c-14.515 0-26.324 11.809-26.324 26.324v56.433c0 14.515 11.809 26.325 26.324 26.325 14.516 0 26.325-11.809 26.325-26.325v-56.433c0-14.515-11.809-26.324-26.325-26.324z" fill="#f9f6f6"/></g><g><path d="m371.906 333.465c-24.4 0-44.25-19.851-44.25-44.25v-56.433c0-24.4 19.85-44.25 44.25-44.25 24.399 0 44.25 19.85 44.25 44.25v56.433c-.001 24.399-19.851 44.25-44.25 44.25zm0-127.008c-14.516 0-26.325 11.809-26.325 26.324v56.433c0 14.515 11.809 26.325 26.325 26.325 14.515 0 26.324-11.809 26.324-26.325v-56.433c0-14.515-11.809-26.324-26.324-26.324z" fill="#f9f6f6"/></g><g fill="#f9f6f6"><path d="m198.659 248.5c-3.707 0-7.124-2.381-8.401-5.86-1.297-3.535-.209-7.638 2.716-10.027 2.877-2.35 7.008-2.677 10.213-.8 3.202 1.875 4.954 5.641 4.295 9.299-.76 4.218-4.53 7.388-8.823 7.388z"/><path d="m198.659 291.424c-3.714 0-7.116-2.389-8.401-5.865-1.308-3.539-.198-7.628 2.716-10.024 2.871-2.361 7.007-2.685 10.213-.808 3.202 1.875 4.954 5.653 4.295 9.308-.759 4.214-4.533 7.389-8.823 7.389z"/></g></g><g><circle cx="435.22" cy="152.175" fill="#fbb031" r="28.364"/><circle cx="435.22" cy="50.472" fill="#fbb031" r="14.182"/><path d="m480.48 94.844v57.335h-90.522v-57.335c0-24.996 20.265-45.261 45.261-45.261 12.498 0 23.81 5.069 32.001 13.26s13.26 19.504 13.26 32.001z" fill="#f4dd45"/><path d="m449.604 51.918c-17.954 6.001-30.888 22.951-30.888 42.926v57.335h-28.758v-57.336c0-24.996 20.265-45.261 45.261-45.261 5.033.001 9.86.823 14.385 2.336z" fill="#fbb031"/><path d="m480.48 108.08v44.099h-90.522v-44.099c2.928-1.028 6.061-1.573 9.328-1.573h71.866c3.266 0 6.4.545 9.328 1.573z" fill="#fbb031"/><path d="m499.685 166.659h-128.93v-22.761c0-15.76 12.776-28.536 28.536-28.536h71.858c15.76 0 28.536 12.776 28.536 28.536z" fill="#f4dd45"/><path d="m429.869 115.361c-15.764 0-28.54 12.776-28.54 28.54v22.757h-30.573v-22.757c0-15.764 12.776-28.54 28.528-28.54z" fill="#fbb031"/></g></g></svg>