<svg height="512" viewBox="0 0 64 64" width="512" xmlns="http://www.w3.org/2000/svg"><path d="m59.001 1.99855h-22a3.00328 3.00328 0 0 0 -3 3v5.71411c-16.00681-4.02712-32.21459 8.76345-31.99984 25.28605a26.02881 26.02881 0 0 0 25.99984 25.99984c18.22771.27657 31.27064-19.3075 23.9997-36h7.0003a3.00328 3.00328 0 0 0 3-3v-18a3.00328 3.00328 0 0 0 -3-3zm-42 55.3197v-3.3197a8.98974 8.98974 0 0 1 7-8.76727v1.76727a4 4 0 0 0 8 0v-1.767a8.98974 8.98974 0 0 1 7 8.767v3.3197a24.12 24.12 0 0 1 -22 0zm9-11.5213a10.06584 10.06584 0 0 0 4 0v1.2016a2 2 0 0 1 -4 0zm2-1.7984a8.00917 8.00917 0 0 1 -8-8c.43956-10.61307 15.56206-10.61 16 .00006a8.00919 8.00919 0 0 1 -8 7.99994zm24-8a23.99541 23.99541 0 0 1 -11 20.15808v-2.15808a10.99 10.99 0 0 0 -6.80853-10.16241c7.36645-5.76958 3.28088-17.82442-6.19163-17.83754-9.47244.01329-13.55782 12.06974-6.19131 17.83754a10.99 10.99 0 0 0 -6.80853 10.16241v2.15808c-22.482-15.04425-7.59542-49.68023 19-43.381v10.2229a3.00328 3.00328 0 0 0 3 3h4.88477a4.5571 4.5571 0 0 1 -2.33457 3.07121 1.00032 1.00032 0 0 0 -.53555 1.06356c.232.86407.805.85614 1.73776.86913 2.28519.18069 6.60113-1.4202 7.982-5.0039h1.07373a23.75036 23.75036 0 0 1 2.19186 10.00002zm8-13a1.001 1.001 0 0 1 -1 1h-10.94731a.99975.99975 0 0 0 -.94532.67383 6.357 6.357 0 0 1 -4.20312 4.01855c.6761-.94394 2.0309-4.5123.04453-4.69241h-5.94883a1.001 1.001 0 0 1 -1-1v-18a1.001 1.001 0 0 1 1-1h22a1.001 1.001 0 0 1 1 1z"/><path d="m53.001 5.99855a5.00589 5.00589 0 0 0 -5 5v2h-4a3.00328 3.00328 0 0 0 -3 3v3a3.00328 3.00328 0 0 0 3 3h8a3.00328 3.00328 0 0 0 3-3v-3a3.00328 3.00328 0 0 0 -3-3h-2v-2a3 3 0 0 1 6 0v2a1.0001 1.0001 0 0 0 2 0v-2a5.00589 5.00589 0 0 0 -5-5zm0 10c-.03 4.6111.59668 3.96605-4 4v-2a1 1 0 0 0 -2 0v2c-4.60367-.03191-3.96816.60369-4-4a1.00094 1.00094 0 0 1 1-1h8a1.001 1.001 0 0 1 1 1z"/></svg>