<svg id="Capa_1" enable-background="new 0 0 596.448 596.448" height="512" viewBox="0 0 596.448 596.448" width="512" xmlns="http://www.w3.org/2000/svg"><g><g><path d="m500.925 552.166h-360.036c-19.932 0-36.148-16.216-36.148-36.148v-479.869c0-19.932 16.216-36.148 36.148-36.148h295.784c4.991 0 9.037 4.046 9.037 9.037s-4.046 9.037-9.037 9.037h-295.784c-9.966 0-18.074 8.108-18.074 18.074v479.869c0 9.966 8.108 18.074 18.074 18.074h360.036c9.966 0 18.075-8.107 18.075-18.074v-418.055c0-4.991 4.046-9.037 9.037-9.037s9.037 4.046 9.037 9.037v418.056c0 19.931-16.216 36.147-36.149 36.147z"/></g><g><path d="m455.56 596.448h-360.128c-19.932 0-36.148-16.216-36.148-36.149v-479.868c0-19.932 16.216-36.148 36.148-36.148h18.074c4.991 0 9.037 4.046 9.037 9.037s-4.046 9.037-9.037 9.037h-18.074c-9.966 0-18.074 8.108-18.074 18.074v479.868c0 9.966 8.108 18.075 18.074 18.075h360.128c9.966 0 18.074-8.109 18.074-18.075v-16.99c0-4.991 4.046-9.037 9.037-9.037s9.037 4.046 9.037 9.037v16.99c0 19.933-16.217 36.149-36.148 36.149z"/></g><g><path d="m528.127 106.999h-91.455c-4.991 0-9.037-4.046-9.037-9.037v-88.924c0-3.632 2.174-6.911 5.521-8.325 3.345-1.414 7.212-.686 9.816 1.845l91.455 88.925c2.637 2.565 3.457 6.471 2.073 9.879-1.383 3.408-4.695 5.637-8.373 5.637zm-82.418-18.073h60.161l-60.161-58.496z"/></g><g><path d="m396.909 127.333h-213.185c-4.991 0-9.037-4.046-9.037-9.037s4.046-9.037 9.037-9.037h213.184c4.991 0 9.037 4.046 9.037 9.037s-4.045 9.037-9.036 9.037z"/></g><g><path d="m452.487 215.354h-268.763c-4.991 0-9.037-4.046-9.037-9.037s4.046-9.037 9.037-9.037h268.762c4.991 0 9.037 4.046 9.037 9.037s-4.046 9.037-9.036 9.037z"/></g><g><path d="m452.487 303.376h-268.763c-4.991 0-9.037-4.046-9.037-9.038 0-4.991 4.046-9.037 9.037-9.037h268.762c4.991 0 9.037 4.046 9.037 9.037 0 4.992-4.046 9.038-9.036 9.038z"/></g><g><path d="m452.487 391.396h-268.763c-4.991 0-9.037-4.046-9.037-9.037s4.046-9.037 9.037-9.037h268.762c4.991 0 9.037 4.046 9.037 9.037s-4.046 9.037-9.036 9.037z"/></g><g><path d="m452.487 479.418h-268.763c-4.991 0-9.037-4.046-9.037-9.037s4.046-9.037 9.037-9.037h268.762c4.991 0 9.037 4.046 9.037 9.037s-4.046 9.037-9.036 9.037z"/></g></g></svg>