<svg id="Capa_1" enable-background="new 0 0 512 512" height="512" viewBox="0 0 512 512" width="512" xmlns="http://www.w3.org/2000/svg"><g><path d="m256 320.5 75 95.5-75 77.5h-202.86c-19.13 0-34.64-15.51-34.64-34.64v-103.72c0-19.13 15.51-34.64 34.64-34.64z" fill="#e6f0f2"/><path d="m493.5 355.14v103.72c0 19.13-15.51 34.64-34.64 34.64h-202.86v-173h202.86c19.13 0 34.64 15.51 34.64 34.64z" fill="#cfe2e6"/><path d="m157.21 392.042h-8.619l4.307-7.457c4.144-7.174 1.687-16.348-5.487-20.491-7.174-4.142-16.349-1.687-20.491 5.487l-4.313 7.469-4.313-7.469c-4.144-7.174-13.32-9.629-20.491-5.487-7.174 4.143-9.631 13.317-5.487 20.491l4.307 7.457h-8.623c-8.284 0-15 6.716-15 15s6.716 15 15 15h8.62l-4.307 7.457c-4.144 7.174-1.687 16.348 5.487 20.491 2.363 1.365 4.942 2.013 7.488 2.013 5.183 0 10.225-2.69 13.003-7.5l4.313-7.469 4.313 7.469c2.778 4.811 7.82 7.5 13.003 7.5 2.546 0 5.126-.648 7.488-2.013 7.174-4.143 9.631-13.317 5.487-20.491l-4.307-7.457h8.619c8.284 0 15-6.716 15-15s-6.713-15-14.997-15z" fill="#bfb3ff"/><path d="m256 377.05 16 28.95-16 31.03-4.31 7.47c-2.78 4.81-7.82 7.5-13.01 7.5-2.54 0-5.12-.65-7.48-2.01-7.18-4.14-9.64-13.32-5.49-20.49l4.31-7.46h-8.62c-8.29 0-15-6.71-15-15 0-8.28 6.71-15 15-15h8.62l-4.31-7.46c-4.15-7.17-1.69-16.34 5.49-20.49 7.17-4.14 16.34-1.68 20.49 5.49z" fill="#bfb3ff"/><path d="m424 391.958h-8.62l4.307-7.457c4.144-7.174 1.687-16.348-5.487-20.491-7.174-4.142-16.349-1.687-20.491 5.487l-4.313 7.469-4.313-7.469c-4.143-7.174-13.32-9.629-20.491-5.487-7.174 4.143-9.631 13.317-5.487 20.491l4.307 7.457h-8.619c-8.284 0-15 6.716-15 15s6.716 15 15 15h8.619l-4.307 7.457c-4.144 7.174-1.687 16.348 5.487 20.491 2.363 1.365 4.942 2.013 7.488 2.013 5.183 0 10.225-2.69 13.003-7.5l4.313-7.469 4.313 7.469c2.778 4.811 7.82 7.5 13.003 7.5 2.546 0 5.126-.648 7.488-2.013 7.174-4.143 9.631-13.317 5.487-20.491l-4.307-7.457h8.62c8.284 0 15-6.716 15-15s-6.716-15-15-15z" fill="#99f"/><g><path d="m46.96 332h209.04l16-15-16-15h-209.04c-25.89 0-46.96 21.07-46.96 46.96v116.08c0 25.89 21.07 46.96 46.96 46.96h209.04l13-17-13-13h-209.04c-9.35 0-16.96-7.61-16.96-16.96v-116.08c0-9.35 7.61-16.96 16.96-16.96z" fill="#cfe2e6"/></g><g><g><path d="m256 0 21 18-21 12c-32.12 0-58.25 26.13-58.25 58.25v21.65h-30v-21.65c0-48.66 39.59-88.25 88.25-88.25z" fill="#6d4d8c"/></g><path d="m344.25 88.25v21.65h-30v-21.65c0-32.12-26.13-58.25-58.25-58.25v-30c48.66 0 88.25 39.59 88.25 88.25z" fill="#533373"/><g><path d="m256 100 25 54-25 118h-27.31c-47.52 0-86.19-38.67-86.19-86.19v-70.81c0-8.28 6.72-15 15-15z" fill="#ffe14d"/></g><path d="m369.5 115v70.81c0 47.52-38.67 86.19-86.19 86.19h-27.31v-172h98.5c8.28 0 15 6.72 15 15z" fill="#fb3"/><path d="m256 160 10 16-10 36c-8.28 0-15-6.72-15-15v-7h-1c-8.28 0-15-6.72-15-15s6.72-15 15-15z" fill="#6d4d8c"/><path d="m287 175c0 8.28-6.72 15-15 15h-1v7c0 8.28-6.72 15-15 15v-52h16c8.28 0 15 6.72 15 15z" fill="#533373"/></g><path d="m512 348.96v116.08c0 25.89-21.07 46.96-46.96 46.96h-209.04v-30h209.04c9.35 0 16.96-7.61 16.96-16.96v-116.08c0-9.35-7.61-16.96-16.96-16.96h-209.04v-30h209.04c25.89 0 46.96 21.07 46.96 46.96z" fill="#b9d4d9"/><path d="m305.6 407.04c0 8.29-6.71 15-15 15h-8.61l4.3 7.46c4.15 7.17 1.69 16.35-5.48 20.49-2.37 1.36-4.95 2.01-7.49 2.01-5.19 0-10.23-2.69-13.01-7.5l-4.31-7.47v-59.98l4.31-7.47c4.15-7.17 13.32-9.63 20.5-5.49 7.17 4.15 9.63 13.32 5.48 20.49l-4.3 7.46h8.61c8.29 0 15 6.72 15 15z" fill="#99f"/></g></svg>