<svg height="511pt" viewBox="0 -3 511.9999 511" width="511pt" xmlns="http://www.w3.org/2000/svg"><path d="m325.140625 282.910156-98.523437-55.792968-92.136719 92.136718c-42.613281 42.609375-42.613281 111.699219.007812 154.320313 21.308594 21.308593 49.230469 31.960937 77.15625 31.953125 27.925781.007812 55.855469-10.652344 77.15625-31.953125l92.136719-92.136719zm0 0" fill="#f08b77"/><path d="m325.140625 282.910156-18.601563-10.535156 45.261719 79.925781-92.136719 92.136719c-21.304687 21.300781-49.230468 31.960938-77.15625 31.953125-21.398437.003906-42.789062-6.253906-61.210937-18.761719 3.816406 5.617188 8.210937 10.964844 13.191406 15.945313 21.308594 21.308593 49.230469 31.960937 77.15625 31.953125 27.925781.007812 55.855469-10.648438 77.15625-31.953125l92.136719-92.136719zm0 0" fill="#d77d6a"/><path d="m173.035156 17.789062c-43.632812-27.46875-101.964844-22.207031-139.957031 15.789063-37.996094 37.992187-43.257813 96.324219-15.789063 139.957031l95.65625-60.089844zm0 0" fill="#ebeced"/><path d="m208.601562 53.355469-95.65625 60.089843-60.089843 95.65625c43.628906 27.464844 101.960937 22.203126 139.953125-15.792968 37.996094-37.992188 43.257812-96.324219 15.792968-139.953125zm0 0" fill="#ebeced"/><path d="m480.035156 282.339844-99.097656 99.097656-154.320312-154.320312 99.097656-99.097657c42.617187-42.621093 111.707031-42.621093 154.328125 0 42.609375 42.613281 42.609375 111.703125-.007813 154.320313zm0 0" fill="#77b8e9"/><path d="m480.042969 128.019531c-4.984375-4.980469-10.328125-9.375-15.949219-13.191406 28.832031 42.457031 24.4375 100.738281-13.195312 138.375l-99.097657 99.097656 29.136719 29.136719 99.097656-99.097656c42.617188-42.617188 42.617188-111.707032.007813-154.320313zm0 0" fill="#6ca5d1"/><g fill="#d1d2d3"><path d="m208.601562 53.355469-155.75 155.746093c-7.019531-4.410156-13.664062-9.679687-19.773437-15.792968-6.113281-6.109375-11.382813-12.75-15.789063-19.773438l155.746094-155.746094c7.023438 4.40625 13.664063 9.675782 19.773438 15.789063 6.113281 6.113281 11.382812 12.753906 15.792968 19.777344zm0 0"/><path d="m195.894531 190.097656c3.964844-4.296875 7.597657-8.902344 10.855469-13.753906-36.996094 24.863281-85.433594 25.496094-122.992188 1.851562-2.75-1.726562-5.421874-3.578124-8.011718-5.535156l-22.894532 36.441406c20.007813 12.59375 43.859376 18.574219 67.4375 17.050782 28.644532-1.855469 56.140626-14.964844 75.605469-36.054688zm0 0"/><path d="m53.734375 150.636719c-1.957031-2.585938-3.8125-5.257813-5.539063-8.007813-23.644531-37.558594-23.015624-85.996094 1.847657-122.992187-1.414063.949219-2.808594 1.9375-4.1875 2.957031-4.523438 3.34375-8.542969 7.289062-12.777344 10.984375-17.296875 17.292969-27.785156 38.804687-31.515625 61.222656-4.480469 26.917969 1.167969 55.609375 15.726562 78.734375zm0 0"/></g><path d="m83.757812 178.195312c-14.324218-8.988281-26.558593-21.257812-35.5625-35.566406 0 0-30.90625 30.90625-30.890624 30.929688 4.5 7.144531 9.804687 13.78125 15.773437 19.75 5.96875 5.976562 12.621094 11.300781 19.777344 15.792968zm0 0" fill="#bdc0c3"/></svg>