<svg id="Layer_1" enable-background="new 0 0 512 512" height="512" viewBox="0 0 512 512" width="512" xmlns="http://www.w3.org/2000/svg"><g><path d="m353.36 504.5h-194.72c-6.981 0-12.64-5.659-12.64-12.64v-320.72c0-6.981 5.659-12.64 12.64-12.64h194.72c6.981 0 12.64 5.659 12.64 12.64v320.72c0 6.981-5.659 12.64-12.64 12.64z" fill="#eaf9fa"/><path d="m353.36 158.5h-30c6.981 0 12.64 5.659 12.64 12.64v320.72c0 6.981-5.659 12.64-12.64 12.64h30c6.981 0 12.64-5.659 12.64-12.64v-320.72c0-6.981-5.659-12.64-12.64-12.64z" fill="#d4f2f6"/><path d="m324.103 158.5h-136.206v-46.304c0-5.355 4.341-9.696 9.696-9.696h116.813c5.355 0 9.696 4.341 9.696 9.696v46.304z" fill="#f3f0f3"/><path d="m314.406 102.5h-30c5.355 0 9.696 4.341 9.696 9.696v46.304h30v-46.304c.001-5.355-4.341-9.696-9.696-9.696z" fill="#e2dee2"/><path d="m324.103 22.5c0 8.284-6.716 15-15 15h-124.026c-2.747 0-4.975 2.227-4.975 4.975v13.349c0 3.411-2.765 6.177-6.177 6.177h-17.647c-3.411 0-6.177-2.765-6.177-6.177v-21.2c0-14.98 12.144-27.124 27.124-27.124h131.876c8.286 0 15.002 6.716 15.002 15z" fill="#f3f0f3"/><g><g><g><path d="m150.103 42.475v13.349c0 3.411 2.765 6.177 6.177 6.177h17.647c3.411 0 6.177-2.765 6.177-6.177v-13.349c0-2.747 2.227-4.975 4.975-4.975h-30c-2.749 0-4.976 2.227-4.976 4.975z" fill="#e2dee2"/></g><g><path d="m309.103 7.5h-30c8.284 0 15 6.716 15 15s-6.716 15-15 15h30c8.284 0 15-6.716 15-15s-6.716-15-15-15z" fill="#e2dee2"/></g></g></g><path d="m272.889 67.5h-33.778c-2.823 0-5.111-2.288-5.111-5.111v-24.889h44v24.889c0 2.823-2.288 5.111-5.111 5.111z" fill="#e2dee2"/><path d="m241 67.5h30v35h-30z" fill="#cbc4cc"/><ellipse cx="256" cy="306.692" fill="#97da7b" rx="54.923" ry="81.692"/><path d="m256 225c-5.203 0-10.23 1.099-15 3.11 23.039 9.711 39.923 41.204 39.923 78.582s-16.884 68.871-39.923 78.583c4.77 2.011 9.797 3.11 15 3.11 30.333 0 54.923-36.575 54.923-81.692s-24.59-81.693-54.923-81.693z" fill="#80d261"/><g><path d="m366 422.423c4.143 0 7.5-3.357 7.5-7.5v-243.783c0-11.105-9.034-20.14-20.14-20.14h-21.758v-38.804c0-9.482-7.714-17.196-17.196-17.196h-35.906v-21.334c4.142-2.07 7-6.341 7-11.278v-17.388h23.603c12.406 0 22.5-10.094 22.5-22.5s-10.094-22.5-22.5-22.5h-24.873c-4.143 0-7.5 3.357-7.5 7.5s3.357 7.5 7.5 7.5h24.872c4.136 0 7.5 3.364 7.5 7.5s-3.364 7.5-7.5 7.5h-124.025c-6.879 0-12.475 5.596-12.475 12.475v12.025h-15v-19.876c0-10.82 8.804-19.624 19.624-19.624h71.619c4.143 0 7.5-3.357 7.5-7.5s-3.357-7.5-7.5-7.5h-71.619c-19.092 0-34.624 15.532-34.624 34.624v21.199c0 7.541 6.136 13.677 13.677 13.677h17.646c7.541 0 13.677-6.136 13.677-13.677v-10.823h38.898v17.389c0 4.937 2.858 9.208 7 11.278v21.333h-35.906c-9.482 0-17.196 7.714-17.196 17.196v38.804h-21.758c-11.105 0-20.14 9.034-20.14 20.14v320.72c0 11.105 9.034 20.14 20.14 20.14h194.72c11.105 0 20.14-9.034 20.14-20.14v-41.86c0-4.143-3.357-7.5-7.5-7.5s-7.5 3.357-7.5 7.5v41.86c0 2.834-2.306 5.14-5.14 5.14h-194.72c-2.834 0-5.14-2.306-5.14-5.14v-320.72c0-2.834 2.306-5.14 5.14-5.14h194.72c2.834 0 5.14 2.306 5.14 5.14v243.783c0 4.142 3.357 7.5 7.5 7.5zm-95.5-377.423v15h-29v-15zm-22 30h15v20h-15zm-53.103 76v-38.804c0-1.211.985-2.196 2.196-2.196h116.813c1.211 0 2.196.985 2.196 2.196v38.804z"/><path d="m256 433.14c4.143 0 7.5-3.357 7.5-7.5v-30.4c14.35-2.391 27.483-11.609 37.561-26.599 11.196-16.653 17.362-38.654 17.362-61.949s-6.166-45.296-17.362-61.949c-11.812-17.568-27.814-27.243-45.061-27.243s-33.249 9.675-45.061 27.243c-11.196 16.653-17.362 38.654-17.362 61.949 0 16.5 3.138 32.599 9.074 46.554 1.621 3.812 6.024 5.585 9.837 3.966 3.812-1.621 5.587-6.025 3.966-9.837-5.153-12.115-7.877-26.183-7.877-40.683 0-20.346 5.26-39.375 14.811-53.581 8.936-13.291 20.518-20.611 32.612-20.611s23.676 7.32 32.612 20.611c9.551 14.206 14.811 33.235 14.811 53.581s-5.26 39.375-14.811 53.581c-7.067 10.511-15.792 17.269-25.112 19.644v-28.893l23.619-18.056c3.291-2.516 3.919-7.223 1.403-10.513-2.514-3.291-7.222-3.921-10.513-1.403l-14.51 11.092v-23.208l23.619-18.056c3.291-2.516 3.919-7.223 1.403-10.513-2.514-3.291-7.222-3.922-10.513-1.403l-14.51 11.092v-17.031c0-4.143-3.357-7.5-7.5-7.5s-7.5 3.357-7.5 7.5v17.031l-14.51-11.092c-3.29-2.518-7.998-1.888-10.513 1.403-2.516 3.29-1.888 7.997 1.403 10.513l23.619 18.056v23.208l-14.51-11.092c-3.29-2.518-7.998-1.889-10.513 1.403-2.516 3.29-1.888 7.997 1.403 10.513l23.619 18.056v28.898c-5.58-1.433-10.995-4.449-15.955-8.933-3.07-2.778-7.814-2.538-10.593.534-2.778 3.073-2.539 7.815.534 10.593 7.864 7.108 16.741 11.559 26.014 13.125v30.397c.004 4.144 3.361 7.502 7.504 7.502z"/></g></g></svg>