<svg id="Icons" enable-background="new 0 0 100 100" height="512" viewBox="0 0 100 100" width="512" xmlns="http://www.w3.org/2000/svg"><path id="Exclusive" d="m50 98c-3.354 0-5.713-2.517-7.793-4.734-.984-1.049-2.332-2.487-3.079-2.687-.835-.22-2.713.34-4.225.791-2.856.855-6.103 1.831-8.912.202-2.848-1.646-3.627-4.969-4.312-7.901-.354-1.509-.794-3.39-1.377-3.973s-2.464-1.022-3.976-1.377c-2.93-.688-6.252-1.468-7.898-4.312-1.626-2.815-.656-6.056.202-8.915.451-1.506 1.014-3.384.791-4.219-.199-.75-1.638-2.098-2.687-3.082-2.217-2.08-4.734-4.439-4.734-7.793s2.517-5.713 4.734-7.793c1.049-.984 2.487-2.332 2.687-3.079.223-.838-.34-2.716-.791-4.225-.858-2.859-1.828-6.1-.202-8.912 1.646-2.848 4.969-3.627 7.901-4.312 1.509-.354 3.39-.794 3.973-1.377s1.022-2.464 1.377-3.976c.688-2.93 1.468-6.252 4.312-7.898 2.824-1.629 6.062-.653 8.915.202 1.506.451 3.393 1.02 4.219.791.75-.199 2.098-1.638 3.082-2.687 2.08-2.217 4.439-4.734 7.793-4.734s5.713 2.517 7.793 4.734c.984 1.049 2.332 2.487 3.079 2.687.835.22 2.713-.34 4.225-.791 2.859-.855 6.108-1.828 8.912-.202 2.848 1.646 3.627 4.969 4.312 7.901.354 1.509.794 3.39 1.377 3.973s2.464 1.022 3.976 1.377c2.93.688 6.252 1.468 7.898 4.312 1.626 2.815.656 6.056-.202 8.915-.451 1.506-1.014 3.384-.791 4.219.199.75 1.638 2.098 2.687 3.082 2.217 2.08 4.734 4.439 4.734 7.793s-2.517 5.713-4.734 7.793c-1.049.984-2.487 2.332-2.687 3.079-.223.838.34 2.716.791 4.225.858 2.859 1.828 6.1.202 8.912-1.646 2.848-4.969 3.627-7.901 4.312-1.509.354-3.39.794-3.973 1.377s-1.022 2.464-1.377 3.976c-.688 2.93-1.468 6.252-4.312 7.898-2.821 1.632-6.062.653-8.915-.202-1.506-.451-3.393-1.02-4.219-.791-.75.199-2.098 1.638-3.082 2.687-2.08 2.217-4.439 4.734-7.793 4.734zm-11.317-13.465c.671 0 1.339.073 1.995.249 2.399.642 4.181 2.54 5.903 4.377.996 1.061 2.663 2.839 3.419 2.839s2.423-1.778 3.419-2.839c1.723-1.837 3.504-3.735 5.906-4.377 2.476-.668 5.145.135 7.491.838 1.266.378 3.627 1.099 4.189.756.598-.346 1.166-2.771 1.474-4.075.583-2.484 1.184-5.057 2.977-6.847 1.79-1.793 4.362-2.394 6.847-2.977 1.395-.328 3.729-.873 4.078-1.477.328-.565-.378-2.921-.759-4.184-.703-2.353-1.503-5.016-.838-7.497.642-2.399 2.54-4.181 4.377-5.903 1.061-.995 2.839-2.662 2.839-3.418s-1.778-2.423-2.839-3.419c-1.837-1.723-3.735-3.504-4.377-5.906-.665-2.479.135-5.142.838-7.491.381-1.266 1.087-3.618.756-4.189-.346-.598-2.771-1.166-4.075-1.474-2.484-.583-5.057-1.184-6.847-2.977-1.793-1.79-2.394-4.362-2.977-6.847-.328-1.395-.873-3.729-1.477-4.078-.56-.319-2.915.381-4.184.759-2.35.703-5.013 1.506-7.497.838-2.399-.642-4.181-2.54-5.903-4.377-.995-1.061-2.662-2.839-3.418-2.839s-2.423 1.778-3.419 2.839c-1.723 1.837-3.504 3.735-5.906 4.377-2.476.668-5.145-.135-7.491-.838-1.266-.378-3.621-1.093-4.189-.756-.598.346-1.166 2.771-1.474 4.075-.583 2.484-1.184 5.057-2.977 6.847-1.79 1.793-4.362 2.394-6.847 2.977-1.395.328-3.729.873-4.078 1.477-.328.565.378 2.921.759 4.184.703 2.353 1.503 5.016.838 7.497-.642 2.399-2.54 4.181-4.377 5.903-1.061.995-2.839 2.662-2.839 3.418s1.778 2.423 2.839 3.419c1.837 1.723 3.735 3.504 4.377 5.906.665 2.479-.135 5.142-.838 7.491-.381 1.266-1.087 3.618-.756 4.189.346.598 2.771 1.166 4.075 1.474 2.484.583 5.057 1.184 6.847 2.977 1.793 1.79 2.394 4.362 2.977 6.847.328 1.395.873 3.729 1.477 4.078.568.328 2.918-.378 4.184-.759 1.73-.518 3.629-1.087 5.501-1.087zm26.15-10.535c-.472 0-.946-.111-1.38-.337l-13.453-6.973-13.453 6.973c-1.011.527-2.232.428-3.152-.243-.92-.674-1.38-1.811-1.184-2.936l2.561-14.71-10.849-10.423c-.829-.794-1.131-1.989-.779-3.082s1.295-1.887 2.432-2.051l15.029-2.153 6.712-13.409c1.02-2.027 4.348-2.027 5.367 0l6.715 13.409 15.026 2.153c1.137.164 2.08.958 2.432 2.051s.05 2.288-.779 3.082l-10.849 10.423 2.561 14.71c.196 1.125-.264 2.262-1.184 2.936-.525.384-1.146.58-1.773.58zm-32.32-28.714 6.413 6.164c1.441 1.38 2.098 3.381 1.758 5.353l-1.523 8.748 8.08-4.187c1.729-.896 3.791-.896 5.52 0l8.08 4.187-1.523-8.745c-.34-1.975.316-3.976 1.758-5.358l6.413-6.161-8.941-1.28c-1.945-.275-3.633-1.494-4.515-3.255l-4.033-8.052-4.031 8.054c-.882 1.758-2.569 2.977-4.518 3.252z"/></svg>