<svg height="512pt" viewBox="-2 0 512 512.00216" width="512pt" xmlns="http://www.w3.org/2000/svg"><path d="m397.046875 222.207031c-2.199219 1.875-4.675781 3.398438-7.335937 4.523438-5.117188 2.441406-10.71875 3.695312-16.386719 3.667969-9.007813.109374-17.746094-3.078126-24.574219-8.957032-12.566406-11.125-27.09375-19.804687-42.839844-25.601562-33.597656-12.375-70.507812-12.375-104.105468 0-15.746094 5.796875-30.273438 14.476562-42.835938 25.601562-13.886719 11.65625-34.050781 11.976563-48.300781.765625-8.761719-6.726562-12.4375-18.1875-9.214844-28.757812 1.566406-4.898438 4.460937-9.273438 8.363281-12.628907 18.953125-16.753906 40.859375-29.832031 64.597656-38.570312 51.269532-18.945312 107.621094-18.945312 158.890626 0 23.738281 8.738281 45.644531 21.816406 64.597656 38.570312 6.203125 5.148438 9.722656 12.839844 9.554687 20.898438s-4 15.601562-10.410156 20.488281zm0 0" fill="#bb193b"/><path d="m482.550781 135.851562c-2.398437 2.257813-5.132812 4.128907-8.105469 5.546876-4.90625 2.425781-10.3125 3.683593-15.785156 3.667968-9.039062.085938-17.757812-3.34375-24.320312-9.558594-11.667969-11.121093-24.351563-21.121093-37.890625-29.863281-13.722657-8.804687-28.234375-16.320312-43.347657-22.445312-15.460937-6.261719-31.492187-11.003907-47.871093-14.164063-33.960938-6.570312-68.867188-6.570312-102.828125 0-16.347656 3.171875-32.351563 7.914063-47.785156 14.164063-15.113282 6.125-29.625 13.640625-43.351563 22.445312-13.535156 8.742188-26.222656 18.742188-37.886719 29.863281-.855468.769532-1.707031 1.539063-2.5625 2.21875-13.664062 10.507813-32.894531 9.71875-45.652344-1.875-9.53125-8.515624-12.761718-22.0625-8.105468-33.964843 1.707031-4.292969 4.328125-8.167969 7.679687-11.347657 14.726563-14.0625 30.753907-26.691406 47.871094-37.71875 35.339844-22.707031 74.660156-38.515624 115.882813-46.589843 43.15625-8.277344 87.492187-8.277344 130.644531 0 41.257812 8.054687 80.609375 23.863281 115.96875 46.589843 17.117187 11.027344 33.148437 23.65625 47.871093 37.71875 6.328126 5.863282 9.886719 14.125 9.804688 22.75s-3.796875 16.816407-10.230469 22.5625zm0 0" fill="#bb193b"/><path d="m389.710938 226.730469c-5.117188 2.441406-10.71875 3.695312-16.386719 3.667969-9.007813.109374-17.746094-3.078126-24.574219-8.957032-12.566406-11.125-27.09375-19.804687-42.839844-25.601562-33.597656-12.375-70.507812-12.375-104.105468 0-15.746094 5.796875-30.273438 14.476562-42.835938 25.601562-13.886719 11.65625-34.050781 11.976563-48.300781.765625-8.761719-6.726562-12.4375-18.1875-9.214844-28.757812 16.871094-13.308594 35.734375-23.875 55.894531-31.316407 51.269532-18.945312 107.621094-18.945312 158.890625 0 23.722657 8.769532 45.621094 21.847657 64.597657 38.570313 7.570312 6.347656 10.988281 16.375 8.875 26.027344zm0 0" fill="#ef314c"/><path d="m474.445312 141.398438c-4.90625 2.425781-10.3125 3.683593-15.785156 3.667968-9.039062.085938-17.757812-3.34375-24.320312-9.558594-11.667969-11.121093-24.351563-21.121093-37.890625-29.863281-13.722657-8.804687-28.234375-16.320312-43.347657-22.445312-15.460937-6.261719-31.492187-11.003907-47.871093-14.164063-33.960938-6.570312-68.867188-6.570312-102.828125 0-16.347656 3.171875-32.351563 7.914063-47.785156 14.164063-15.113282 6.125-29.625 13.640625-43.351563 22.445312-13.535156 8.742188-26.222656 18.742188-37.886719 29.863281-.855468.769532-1.707031 1.539063-2.5625 2.21875-13.664062 10.507813-32.894531 9.71875-45.652344-1.875-9.53125-8.515624-12.761718-22.0625-8.105468-33.964843 12.078125-10.679688 24.941406-20.433594 38.484375-29.183594 35.320312-22.726563 74.652343-38.507813 115.882812-46.507813 43.148438-8.359374 87.5-8.359374 130.644531 0 41.265626 7.976563 80.628907 23.761719 115.96875 46.507813 17.097657 11.054687 33.125 23.683594 47.871094 37.71875 8.496094 7.867187 11.800782 19.867187 8.535156 30.976563zm0 0" fill="#ef314c"/><path d="m304.203125 486.996094c-14.59375 10.722656-32.234375 16.492187-50.34375 16.46875-4.285156-.007813-8.5625-.320313-12.800781-.9375-23.179688-3.40625-43.851563-16.410156-56.957032-35.832032-13.101562-19.417968-17.425781-43.457031-11.90625-66.226562l3.496094-16.554688.085938-.171874 57.515625-264.703126c.996093-4.886718 3.761719-9.230468 7.765625-12.203124 3.644531-2.878907 8.15625-4.441407 12.800781-4.4375 9.933594-.035157 18.527344 6.917968 20.5625 16.640624l57.515625 264.703126.085938.171874 3.5 16.554688c7.328124 32.484375-4.898438 66.261719-31.320313 86.527344zm0 0" fill="#0377bc"/><path d="m278.605469 486.996094c-11.085938 8.121094-23.964844 13.449218-37.546875 15.53125-23.179688-3.40625-43.851563-16.410156-56.957032-35.832032-13.101562-19.417968-17.425781-43.457031-11.90625-66.226562l3.496094-16.554688.085938-.171874 57.515625-264.703126c.996093-4.886718 3.761719-9.230468 7.765625-12.203124 4.003906 2.972656 6.769531 7.316406 7.765625 12.203124l57.515625 264.703126.082031.171874 3.5 16.554688c7.328125 32.484375-4.898437 66.261719-31.316406 86.527344zm0 0" fill="#02a9f4"/><path d="m287.992188 418.132812c.003906 9.054688-3.59375 17.738282-9.996094 24.140626-6.402344 6.398437-15.085938 9.996093-24.136719 9.992187-4.398437.035156-8.753906-.835937-12.800781-2.558594-12.890625-5.183593-21.332032-17.679687-21.332032-31.574219 0-13.890624 8.441407-26.390624 21.332032-31.574218 4.046875-1.722656 8.402344-2.59375 12.800781-2.558594 9.050781-.003906 17.734375 3.59375 24.136719 9.996094 6.402344 6.398437 10 15.082031 9.996094 24.136718zm0 0" fill="#cfd8dc"/><path d="m262.390625 418.132812c0-17.4375-9.550781-31.574218-21.332031-31.574218s-21.332032 14.136718-21.332032 31.574218 9.550782 31.574219 21.332032 31.574219 21.332031-14.136719 21.332031-31.574219zm0 0" fill="#f5f5f5"/><path d="m457.121094 161.878906c-2.273438 0-4.457032-.910156-6.058594-2.527344-52.140625-52.605468-123.140625-82.199218-197.207031-82.199218-74.070313 0-145.066407 29.59375-197.210938 82.199218-3.390625 3.230469-8.722656 3.230469-12.117187 0l-42.050782-42.390624c-3.300781-3.324219-3.300781-8.6875 0-12.015626 66.410157-67.15625 156.933594-104.945312 251.382813-104.945312s184.96875 37.789062 251.382813 104.945312c3.296874 3.328126 3.296874 8.691407 0 12.015626l-42.0625 42.394531c-1.601563 1.613281-3.78125 2.523437-6.058594 2.523437zm-436.496094-50.855468 30.054688 30.289062c54.679687-52.324219 127.5-81.4375 203.179687-81.230469 75.679687-.207031 148.5 28.90625 203.175781 81.230469l30.050782-30.289062c-130.253907-125.277344-336.210938-125.277344-466.464844 0zm0 0"/><path d="m134.734375 246.613281c-2.273437 0-4.449219-.90625-6.050781-2.515625l-42.070313-42.328125c-3.308593-3.324219-3.3125-8.699219-.007812-12.03125 38.46875-38.765625 89.199219-62.984375 143.53125-68.523437 4.667969-.429688 8.8125 2.984375 9.277343 7.648437.46875 4.664063-2.917968 8.832031-7.578124 9.335938-47.503907 4.835937-92.121094 25.089843-127.03125 57.664062l30.066406 30.25c22.707031-20.839843 50.523437-35.304687 80.625-41.9375 4.574218-.953125 9.070312 1.953125 10.074218 6.519531 1.003907 4.566407-1.851562 9.09375-6.40625 10.148438-29.746093 6.566406-56.960937 21.585938-78.371093 43.246094-1.605469 1.617187-3.785157 2.523437-6.058594 2.523437zm0 0"/><path d="m372.984375 246.613281c-2.277344 0-4.457031-.90625-6.058594-2.519531-21.414062-21.664062-48.628906-36.683594-78.375-43.246094-4.554687-1.058594-7.414062-5.582031-6.40625-10.148437 1.003907-4.566407 5.496094-7.472657 10.074219-6.519531 30.101562 6.628906 57.914062 21.097656 80.625 41.9375l30.066406-30.25c-34.914062-32.574219-79.53125-52.828126-127.035156-57.667969-4.660156-.5-8.046875-4.667969-7.578125-9.332031.464844-4.667969 4.609375-8.082032 9.277344-7.648438 54.332031 5.535156 105.0625 29.753906 143.53125 68.523438 3.304687 3.328124 3.300781 8.703124-.007813 12.03125l-42.070312 42.324218c-1.597656 1.609375-3.773438 2.515625-6.042969 2.515625zm0 0"/><path d="m253.859375 512c-28.242187.195312-55.003906-12.605469-72.574219-34.714844-17.566406-22.113281-23.992187-51.074218-17.417968-78.539062l3.472656-16.578125c.0625-.304688.144531-.605469.246094-.898438l57.359374-264.011719c2.917969-13.652343 14.984376-23.402343 28.945313-23.386718 13.957031.015625 26.003906 9.789062 28.894531 23.445312l57.375 264.039063c.085938.265625.160156.535156.214844.808593l3.476562 16.578126c6.570313 27.464843.148438 56.429687-17.421874 78.539062-17.570313 22.113281-44.332032 34.914062-72.570313 34.71875zm-69.960937-125.652344-3.332032 15.898438c-7.148437 30.859375 5.691406 62.902344 32.167969 80.285156 26.480469 17.382812 60.988281 16.417969 86.457031-2.414062 23.738282-18.261719 34.660156-48.679688 27.957032-77.871094l-3.347657-15.980469c-.082031-.234375-.148437-.472656-.199219-.710937l-57.511718-264.675782c-1.203125-5.785156-6.296875-9.933594-12.203125-9.945312-5.910157-.015625-11.019531 4.109375-12.253907 9.886718l-57.515624 264.734376c-.0625.265624-.132813.527343-.21875.792968zm0 0"/><path d="m253.859375 460.800781c-23.566406 0-42.667969-19.101562-42.667969-42.667969 0-23.5625 19.101563-42.667968 42.667969-42.667968 23.5625 0 42.664063 19.105468 42.664063 42.667968-.027344 23.554688-19.113282 42.640626-42.664063 42.667969zm0-68.265625c-14.140625 0-25.601563 11.460938-25.601563 25.597656 0 14.140626 11.460938 25.601563 25.601563 25.601563 14.136719 0 25.597656-11.460937 25.597656-25.601563-.015625-14.132812-11.464843-25.585937-25.597656-25.597656zm0 0"/></svg>