<svg clip-rule="evenodd" fill-rule="evenodd" height="512" image-rendering="optimizeQuality" shape-rendering="geometricPrecision" text-rendering="geometricPrecision" viewBox="0 0 2.83333 2.83333" width="512" xmlns="http://www.w3.org/2000/svg" xmlns:xlink="http://www.w3.org/1999/xlink"><linearGradient id="id0" gradientUnits="userSpaceOnUse" x1="0" x2="2.833" y1="1.417" y2="1.417"><stop offset="0" stop-color="#26a9e0"/><stop offset=".0901961" stop-color="#2297d3"/><stop offset=".231373" stop-color="#1e84c6"/><stop offset=".368627" stop-color="#1c79be"/><stop offset=".521569" stop-color="#1b75bb"/><stop offset=".960784" stop-color="#2b388f"/><stop offset="1" stop-color="#2b388f"/></linearGradient><g id="Layer_x0020_1"><circle cx="1.417" cy="1.417" fill="url(#id0)" r="1.417"/><g fill="#fff"><path d="m1.65978 2.26997c-.0680394 0-.131843-.0263346-.179665-.074126l-.842634-.84265c-.0989094-.0989173-.0989173-.260402 0-.359311l.331035-.331035c.0492047-.0492165.129539-.0492165.178744 0l.135433.135429c.0492008.0492047.0492008.129543 0 .178748l-.151374.15139.573618.573618.151354-.151374c.0492165-.0492205.129563-.0492126.17878 0l.135429.135429c.0492087.0492205.0491969.129555 0 .178764l-.331031.331051c-.0478307.047748-.11163.0740669-.179689.0740669zm-.804051-.84822c-.00512205 0-.0102362-.00196063-.0141378-.00586614l-.133386-.133398c-.0598465-.0598504-.0598898-.158055-.0000315-.217917l.133398-.13339c.0186299-.0186299.0469016.00967323.0282795.0282795l-.133402.133386c-.0444685.0444882-.0444685.116862.00001575.161346l.13339.133402c.0126654.0126535.00346063.0341575-.014126.0341575zm.804051.748457c-.0394567 0-.0789134-.0150276-.108957-.0450551l-.133567-.133567c-.0186339-.0186339.00966535-.0469213.0282953-.0282913l.133567.133567c.0444528.0444882.116874.0444882.161327 0l.133232-.133232c.0186457-.0186457.0469134.00969685.0282953.0282953l-.133232.133228c-.0300433.0300276-.0694882.0450551-.108961.0450551z"/><path d="m2.24996 1.4159c-.0110394 0-.02-.00896063-.02-.02 0-.437933-.354602-.792524-.792567-.792535-.0263307 0-.0263268-.04 0-.04.460264 0 .832909.372949.832583.832543-.00001575.0110472-.00897638.0199921-.0200157.0199921z"/><path d="m1.99994 1.4159c-.0110354 0-.0199961-.00896063-.0199961-.02 0-.299803-.242717-.542504-.542531-.54252-.0263307 0-.0263268-.04 0-.04.321976 0 .582776.260831.582543.582516-.00001575.0110591-.00897638.0200039-.0200157.0200039z"/><path d="m1.74993 1.41593c-.0110394 0-.02-.00896063-.02-.02 0-.16165-.130858-.292535-.292508-.292535-.0263307 0-.0263307-.04 0-.04.183791 0 .332476.148744.332516.332535.00000787.0110433-.00896457.02-.0200079.02z"/></g></g></svg>