<svg id="Layer_1" enable-background="new 0 0 468 468" height="512" viewBox="0 0 468 468" width="512" xmlns="http://www.w3.org/2000/svg"><g><g><g><g><g><g><g><path d="m446 316.822h-398.5c-11.046 0-20-8.954-20-20v-276.822c0-11.046 8.954-20 20-20h398.5c11.046 0 20 8.954 20 20v276.822c0 11.046-8.954 20-20 20z" fill="#e0e0e0"/></g></g></g><g><path d="m27.5 257.302v39.008c0 11.328 9.174 20.512 20.491 20.512h397.518c11.317 0 20.491-9.183 20.491-20.512v-39.008z" fill="#7979f7"/></g></g><circle cx="246.745" cy="287.062" fill="#fff" r="10"/><g><g><g><g><path d="m193.634 316.822h106.233v71.38h-106.233z" fill="#e0e0e0"/></g></g></g><path d="m171.959 381.202h149.582v14h-149.582z" fill="#7979f7"/></g></g><g><g><g><path d="m361.573 144.989h-229.508c-11.046 0-20-8.954-20-20v-64.991c0-11.046 8.954-20 20-20h229.509c11.046 0 20 8.954 20 20v64.992c-.001 11.045-8.955 19.999-20.001 19.999z" fill="#5fd65f"/></g><g fill="#fff"><path d="m194.875 82.924-8.035-11.464-10.959 7.681v-13.401h-14v13.401l-10.96-7.681-8.035 11.464 13.799 9.672-13.799 9.672 8.035 11.464 10.96-7.682v13.402h14v-13.402l10.959 7.682 8.035-11.464-13.799-9.672z"/><path d="m272.74 82.924-8.036-11.464-10.959 7.681v-13.401h-14v13.401l-10.959-7.681-8.036 11.464 13.8 9.672-13.8 9.672 8.036 11.464 10.959-7.682v13.402h14v-13.402l10.959 7.682 8.036-11.464-13.8-9.672z"/><path d="m350.604 82.924-8.035-11.464-10.96 7.681v-13.401h-14v13.401l-10.959-7.681-8.035 11.464 13.799 9.672-13.799 9.672 8.035 11.464 10.959-7.682v13.402h14v-13.402l10.96 7.682 8.035-11.464-13.799-9.672z"/></g></g><path d="m242.602 222.778-18.064-13.729 8.471-11.146 12.595 9.571 21.967-27.81 10.986 8.678-26.226 33.202c-1.38 1.746-5.581 4.106-9.729 1.234z" fill="#8d9096"/></g></g><g><g><path d="m173.634 468h-151.634c-11.046 0-20-8.954-20-20v-238.065c0-11.046 8.954-20 20-20h151.634c11.046 0 20 8.954 20 20v238.065c0 11.046-8.955 20-20 20z" fill="#f7c94b"/><path d="m174.185 453.967h-152.736c-2.209 0-4-1.791-4-4v-242c0-2.209 1.791-4 4-4h152.736c2.209 0 4 1.791 4 4v242c0 2.21-1.791 4-4 4z" fill="#ffe180"/><g fill="#fff"><circle cx="95.802" cy="221.205" r="6"/><circle cx="120.802" cy="221.205" r="5"/><circle cx="70.802" cy="221.205" r="5"/></g></g><g><g><path d="m158.467 347.259c-19.446-36.665-1.716-66.73-1.716-66.73l-25.595-14.519-33.34 9.41-33.34-9.41-25.594 14.52s17.73 30.065-1.716 66.73c0 0-3.384 53.09 60.65 57.784 64.035-4.694 60.651-57.785 60.651-57.785z" fill="#ff5798"/></g><path d="m87.485 355.18-18.064-13.729 8.472-11.146 12.594 9.572 21.967-27.81 10.986 8.678-26.226 33.202c-1.38 1.746-4.674 4.633-9.729 1.233z" fill="#fff"/></g></g></g></svg>