<svg height="512" viewBox="0 0 256 256" width="512" xmlns="http://www.w3.org/2000/svg"><g id="Layer_34"><g><g><path d="m167.347 34.562-9.224 11.385c-1.087 1.342-.881 3.31.461 4.397l16.676 13.511c.626.507.267 1.52-.538 1.52h-157c-1.727 0-3.126 1.4-3.126 3.126v48.997c0 1.727 1.4 3.126 3.126 3.126h157c.806 0 1.165 1.013.538 1.52l-16.676 13.511c-1.342 1.087-1.548 3.056-.461 4.397l9.224 11.385c1.087 1.342 3.056 1.548 4.397.461l67.749-54.892c2.548-2.064 2.548-5.951 0-8.015l-67.749-54.891c-1.342-1.086-3.31-.88-4.397.462z" fill="#70d6f9"/></g><g><path d="m96.423 65.375h33.879l-5.107-44.945c-.367-3.231-3.101-5.671-6.352-5.671h-21.722c-3.858 0-6.837 3.391-6.34 7.217z" fill="#c18e6b"/></g><g><path d="m63.089 65.375c-5.771-14.049-8.83-26.531-10.194-33.099-.592-2.854-3.099-4.896-6.014-4.896h-6.52c-3.497 0-6.271 2.918-6.139 6.413.435 11.559 2.038 22.05 4.471 31.583h24.396z" fill="#c18e6b"/></g><g><path d="m171.13 169.937-15.21-18.252c-1.164-1.397-3.053-1.958-4.79-1.423l-5.611 1.726c-2.699.83-5.488-.995-5.807-3.801l-3.132-27.563h-69.105c10.736 12.748 21.444 21.519 27.627 27.703 15.776 15.776 8.414 105.172 8.414 105.172h49.431s-5.259-35.759-5.259-52.586c0-12.013 13.937-20.275 21.911-24.018 2.669-1.252 3.418-4.693 1.531-6.958z" fill="#c18e6b"/></g><g><path d="m220.013 171.175c-3.1-.6-5.6-3-6.2-6.1 0-.1-.3-.1-.3 0-.6 3.1-3.1 5.5-6.2 6.1-.1 0-.1.2 0 .3 3.1.6 5.6 3 6.2 6.1 0 .1.3.1.3 0 .6-3.1 3.1-5.5 6.2-6.1.1-.1.1-.3 0-.3z" fill="#fc657e"/></g><g><path d="m193.013 21.5h2.3v2.3c0 1.8 1.4 3.2 3.2 3.2 1.7 0 3.2-1.4 3.2-3.1v-.1-2.3h2.3c1.8 0 3.2-1.4 3.2-3.2 0-1.7-1.4-3.2-3.1-3.2h-.1-2.3v-2.3c0-1.8-1.4-3.2-3.2-3.2-1.7 0-3.2 1.4-3.2 3.1v.1 2.3h-2.3c-1.8 0-3.2 1.4-3.2 3.2-.1 1.7 1.3 3.2 3.2 3.2-.1 0-.1 0 0 0z" fill="#87d147"/></g><g><circle cx="63.413" cy="222.9" fill="#70d6f9" r="3.4"/></g><g><circle cx="149.413" cy="3.4" fill="#f5c84c" r="3.4"/></g><g><path d="m38.813 187.2c4.5-.8 8-4.3 8.9-8.7 0-.2.4-.2.4 0 .9 4.4 4.4 7.9 8.9 8.7.2 0 .2.3 0 .4-4.5.8-8 4.3-8.9 8.7 0 .2-.4.2-.4 0-.9-4.4-4.4-7.9-8.9-8.7-.2-.1-.2-.4 0-.4z" fill="#f5c84c"/></g><g><g><path d="m174.634 106.844h-7.854c-1.381 0-2.5-1.119-2.5-2.5v-22.688c0-1.381 1.119-2.5 2.5-2.5h7.854c3.784 0 6.862 3.079 6.862 6.863v13.962c0 3.784-3.078 6.863-6.862 6.863zm-5.354-5h5.354c1.027 0 1.862-.835 1.862-1.863v-13.962c0-1.027-.835-1.863-1.862-1.863h-5.354z"/></g><g><path d="m79.68 106.844h-12.217c-1.381 0-2.5-1.119-2.5-2.5v-22.688c0-1.381 1.119-2.5 2.5-2.5h12.217c1.381 0 2.5 1.119 2.5 2.5s-1.119 2.5-2.5 2.5h-9.717v17.688h9.717c1.381 0 2.5 1.119 2.5 2.5s-1.119 2.5-2.5 2.5z"/></g><g><path d="m75.316 94.882h-7.854c-1.381 0-2.5-1.119-2.5-2.5s1.119-2.5 2.5-2.5h7.854c1.381 0 2.5 1.119 2.5 2.5s-1.119 2.5-2.5 2.5z"/></g><g><path d="m99.375 106.844h-12.217c-1.381 0-2.5-1.119-2.5-2.5v-22.688c0-1.381 1.119-2.5 2.5-2.5h12.217c1.381 0 2.5 1.119 2.5 2.5s-1.119 2.5-2.5 2.5h-9.717v17.688h9.717c1.381 0 2.5 1.119 2.5 2.5s-1.119 2.5-2.5 2.5z"/></g><g><path d="m95.012 94.882h-7.854c-1.381 0-2.5-1.119-2.5-2.5s1.119-2.5 2.5-2.5h7.854c1.381 0 2.5 1.119 2.5 2.5s-1.119 2.5-2.5 2.5z"/></g><g><path d="m138.766 106.844h-12.216c-1.381 0-2.5-1.119-2.5-2.5v-22.688c0-1.381 1.119-2.5 2.5-2.5h12.216c1.381 0 2.5 1.119 2.5 2.5s-1.119 2.5-2.5 2.5h-9.716v17.688h9.716c1.381 0 2.5 1.119 2.5 2.5s-1.12 2.5-2.5 2.5z"/></g><g><path d="m134.403 94.882h-7.854c-1.381 0-2.5-1.119-2.5-2.5s1.119-2.5 2.5-2.5h7.854c1.381 0 2.5 1.119 2.5 2.5s-1.119 2.5-2.5 2.5z"/></g><g><g><path d="m106.854 106.844c-1.381 0-2.5-1.119-2.5-2.5v-22.688c0-1.381 1.119-2.5 2.5-2.5s2.5 1.119 2.5 2.5v22.688c0 1.381-1.119 2.5-2.5 2.5z"/></g><g><path d="m119.07 106.844c-1.381 0-2.5-1.119-2.5-2.5v-4.363c0-1.027-.835-1.863-1.862-1.863h-7.854c-.98 0-1.871-.574-2.276-1.467-.405-.894-.251-1.941.395-2.679l12.216-13.961c.908-1.039 2.487-1.146 3.528-.235 1.039.909 1.145 2.488.235 3.527l-8.588 9.815h2.344c3.784 0 6.862 3.079 6.862 6.863v4.363c0 1.381-1.119 2.5-2.5 2.5z"/></g></g><g><path d="m158.461 106.844c-.903 0-1.758-.491-2.201-1.315l-7.515-13.956v12.771c0 1.381-1.119 2.5-2.5 2.5s-2.5-1.119-2.5-2.5v-22.688c0-1.146.778-2.144 1.889-2.424 1.117-.278 2.271.231 2.813 1.239l7.515 13.956v-12.771c0-1.381 1.119-2.5 2.5-2.5s2.5 1.119 2.5 2.5v22.688c0 1.146-.778 2.144-1.889 2.424-.205.051-.41.076-.612.076z"/></g><g><path d="m58.305 106.844c-.802 0-1.572-.387-2.048-1.066l-4.061-5.8-4.06 5.8c-.605.865-1.69 1.256-2.707.978-1.019-.279-1.752-1.167-1.833-2.22l-1.746-22.688c-.106-1.376.924-2.579 2.301-2.685 1.354-.101 2.578.924 2.684 2.301l1.211 15.724 2.103-3.004c.468-.668 1.232-1.066 2.048-1.066s1.58.398 2.048 1.066l2.104 3.004 1.21-15.724c.105-1.376 1.303-2.401 2.684-2.301 1.377.106 2.407 1.308 2.301 2.685l-1.745 22.688c-.08 1.053-.814 1.941-1.833 2.22-.22.059-.442.088-.661.088z"/></g></g><g><path d="m169.787 155.097c-.198 0-.398-.01-.598-.031-1.495-.157-2.84-.886-3.785-2.054l-9.224-11.385c-.946-1.167-1.381-2.633-1.225-4.128.157-1.495.887-2.839 2.055-3.785l13.068-10.589h-152.356c-3.103 0-5.626-2.524-5.626-5.626v-48.998c0-3.103 2.523-5.626 5.626-5.626h152.357l-13.069-10.589c-1.167-.946-1.896-2.29-2.054-3.785-.156-1.495.278-2.96 1.225-4.128l9.224-11.385c1.952-2.411 5.502-2.783 7.913-.83l67.75 54.891c1.803 1.461 2.837 3.629 2.837 5.95s-1.034 4.489-2.837 5.95l-67.749 54.893c-1.012.82-2.249 1.255-3.532 1.255zm-152.065-87.222c-.345 0-.626.281-.626.626v48.997c0 .345.281.626.626.626h157c1.418 0 2.688.898 3.162 2.234.474 1.337.052 2.835-1.05 3.728l-16.676 13.511c-.167.135-.217.304-.229.421-.012.118.002.293.137.459l9.224 11.385c.219.269.612.311.882.092l67.748-54.892c.626-.507.985-1.26.985-2.065s-.359-1.558-.985-2.065l-67.75-54.889c-.268-.217-.662-.176-.881.092l-9.224 11.385c-.135.167-.148.342-.137.459.013.118.063.286.229.421l16.677 13.511c1.102.893 1.523 2.391 1.05 3.728-.474 1.336-1.744 2.234-3.162 2.234h-157zm155.964-2.078h.01z"/></g><g><path d="m130.302 67.875h-33.878c-1.256 0-2.317-.932-2.479-2.178l-5.643-43.399c-.329-2.537.45-5.094 2.138-7.015 1.688-1.922 4.124-3.024 6.682-3.024h21.722c4.526 0 8.324 3.391 8.836 7.889l5.107 44.945c.08.708-.146 1.416-.619 1.947-.476.531-1.154.835-1.866.835zm-31.682-5h28.882l-4.792-42.163c-.224-1.969-1.886-3.453-3.867-3.453h-21.722c-1.137 0-2.175.47-2.925 1.324s-1.082 1.944-.936 3.071z"/></g><g><path d="m63.089 67.875h-24.397c-1.143 0-2.14-.775-2.422-1.882-2.6-10.183-4.129-20.985-4.547-32.107-.09-2.387.771-4.647 2.423-6.363 1.643-1.705 3.849-2.644 6.215-2.644h6.52c4.075 0 7.634 2.897 8.462 6.889 1.281 6.172 4.293 18.624 10.059 32.657.316.771.229 1.649-.236 2.342-.465.692-1.243 1.108-2.077 1.108zm-22.441-5h18.751c-5.028-12.977-7.741-24.26-8.953-30.091-.349-1.684-1.849-2.905-3.565-2.905h-6.52c-.994 0-1.923.395-2.613 1.112-.701.729-1.066 1.69-1.028 2.707.379 10.085 1.7 19.889 3.928 29.177z"/></g><g><path d="m152.943 256c-1.22 0-2.288-.894-2.471-2.137-.216-1.467-5.285-36.133-5.285-52.95 0-13.33 14.629-22.188 23.35-26.282.767-.36 1.014-1.011 1.093-1.367.137-.614-.017-1.244-.421-1.728l-15.21-18.252c-.52-.624-1.354-.874-2.134-.634l-5.61 1.726c-1.999.613-4.151.311-5.901-.835s-2.889-2.995-3.125-5.074l-2.881-25.344h-61.383c6.302 7.009 12.406 12.659 17.47 17.344 2.479 2.294 4.619 4.274 6.435 6.091 7.025 7.024 10.678 27.298 10.855 60.256.131 24.151-1.699 46.664-1.718 46.889-.113 1.377-1.33 2.395-2.696 2.287-1.376-.113-2.399-1.321-2.286-2.697 2.021-24.545 4.577-90.932-7.69-103.2-1.748-1.748-3.855-3.698-6.296-5.956-6.118-5.663-13.733-12.71-21.476-21.904-.627-.744-.765-1.783-.354-2.665.41-.881 1.294-1.445 2.267-1.445h69.105c1.271 0 2.341.954 2.484 2.218l3.133 27.563c.092.816.601 1.261.896 1.455.295.193.909.481 1.691.239l5.61-1.726c2.708-.833 5.631.035 7.445 2.212l15.211 18.252c1.402 1.684 1.935 3.875 1.46 6.013-.473 2.129-1.875 3.882-3.849 4.809-17.814 8.363-20.475 17.221-20.475 21.756 0 16.455 5.18 51.866 5.232 52.222.2 1.366-.744 2.636-2.11 2.837-.122.019-.245.027-.366.027z"/></g></g></g></svg>