<svg id="Capa_1" enable-background="new 0 0 512 512" height="512" viewBox="0 0 512 512" width="512" xmlns="http://www.w3.org/2000/svg"><g><g><g><g><path d="m485.333 53.333c0-5.333-5.333-10.667-10.667-10.667h-101.333v-31.999c0-6.4-4.267-10.667-10.667-10.667s-10.667 4.267-10.667 10.667v117.333c0 6.4 4.267 10.667 10.667 10.667s10.667-4.267 10.667-10.667v-29.867c12.8 4.267 21.334 16 21.334 29.867 0 18.134-13.867 32.001-32.001 32.001-18.133 0-32.001-13.867-32.001-32.001 0-7.467 3.2-14.933 7.467-21.334 4.267-4.267 3.2-10.667-1.066-14.933-4.267-4.267-10.667-3.2-14.933 1.066-8.533 9.601-12.8 22.4-12.8 35.2 0 29.867 23.466 53.333 53.333 53.333s53.333-23.466 53.333-53.333c0-25.6-18.133-46.934-42.666-52.267v-11.732h90.666l5.333 128h-426.666l5.333-128h69.334c6.4 0 10.667-4.267 10.667-10.667s-4.266-10.667-10.667-10.667h-80c-5.333 0-10.667 4.267-10.667 10.667l-16 400c0 32.001 26.667 58.667 58.667 58.667h373.333c16 0 29.867-6.4 41.6-17.067 10.667-10.667 17.067-25.6 17.067-41.6zm-16 426.668c-7.467 7.467-16 10.667-26.667 10.667h-373.333c-20.266 0-37.333-17.068-37.333-37.334l9.601-240h428.799l9.6 240c0 9.6-4.268 19.2-10.667 26.667z"/><path d="m149.333 138.667c6.4 0 10.667-4.266 10.667-10.667v-29.867c12.799 4.267 21.334 16 21.334 29.867 0 18.134-13.867 32.001-32.001 32.001s-32.001-13.868-32.001-32.001c0-7.467 3.2-14.933 7.467-21.334 4.267-4.267 3.2-10.667-1.066-14.933-4.267-4.267-10.667-3.2-14.933 1.066-8.533 9.601-12.8 22.4-12.8 35.2 0 29.867 23.466 53.333 53.333 53.333s53.333-23.466 53.333-53.333c0-25.6-18.133-46.934-42.666-52.267v-11.732h170.667c6.4 0 10.667-4.267 10.667-10.667s-4.267-10.667-10.667-10.667h-170.667v-31.999c0-6.4-4.267-10.667-10.667-10.667s-10.667 4.267-10.667 10.667v117.333c0 6.4 4.266 10.667 10.667 10.667z"/><path d="m309.333 266.666h-106.667c-6.4 0-10.667 4.267-10.667 10.667s4.266 10.667 10.667 10.667h87.466l-85.334 133.334c-3.2 5.333-2.134 11.733 3.2 14.933 2.134 1.066 4.266 2.134 5.333 2.134 3.2 0 7.467-2.134 8.533-5.333l96-149.333c2.134-3.2 2.134-7.467 0-10.667-1.064-4.268-4.264-6.402-8.531-6.402z"/></g></g></g></g></svg>